<?xml version="1.0" encoding="UTF-8" standalone="no"?>
<svg
   inkscape:version="1.2.2 (b0a84865, 2022-12-01)"
   sodipodi:docname="computation-matrix.svg"
   id="svg272"
   version="1.1"
   height="20"
   width="20"
   xml:space="preserve"
   xmlns:inkscape="http://www.inkscape.org/namespaces/inkscape"
   xmlns:sodipodi="http://sodipodi.sourceforge.net/DTD/sodipodi-0.dtd"
   xmlns="http://www.w3.org/2000/svg"
   xmlns:svg="http://www.w3.org/2000/svg"><defs
     id="defs276" /><sodipodi:namedview
     id="namedview274"
     pagecolor="#ffffff"
     bordercolor="#000000"
     borderopacity="0.25"
     inkscape:showpageshadow="2"
     inkscape:pageopacity="0.0"
     inkscape:pagecheckerboard="0"
     inkscape:deskcolor="#d1d1d1"
     showgrid="false"
     inkscape:zoom="5"
     inkscape:cx="12.7"
     inkscape:cy="21.9"
     inkscape:window-width="1390"
     inkscape:window-height="1205"
     inkscape:window-x="660"
     inkscape:window-y="121"
     inkscape:window-maximized="0"
     inkscape:current-layer="svg272" /><g
     aria-label="MAT"
     transform="scale(1.0581798,0.94501899)"
     id="text607"
     style="font-style:italic;font-weight:bold;font-size:10.4399px;font-family:Palatino;-inkscape-font-specification:'Palatino, Bold Italic';text-align:center;text-anchor:middle;stroke-width:1.35366"><path
       d="M 7.9922675,1.3763182 V 9.6293449 H 6.1163479 V 4.0576598 L 5.3669996,9.6293449 H 4.036524 L 3.2463948,4.1851 V 9.6293449 H 1.3704752 V 1.3763182 h 2.7781962 q 0.1223425,0.7442507 0.2599779,1.753577 L 4.7043106,5.2301096 5.1936809,1.3763182 Z"
       style="font-style:normal;font-weight:normal;font-stretch:condensed;font-family:Impact;-inkscape-font-specification:'Impact Condensed'"
       id="path101733" /><path
       d="m 12.559724,1.3763182 1.228523,8.2530267 H 11.591178 L 11.484129,8.1459411 H 10.71439 L 10.58695,9.6293449 H 8.3643927 L 9.4552807,1.3763182 Z M 11.422957,6.6829277 Q 11.259834,5.2810856 11.09671,3.2216522 10.770463,5.5869421 10.688902,6.6829277 Z"
       style="font-style:normal;font-weight:normal;font-stretch:condensed;font-family:Impact;-inkscape-font-specification:'Impact Condensed'"
       id="path101735" /><path
       d="M 17.902016,1.3763182 V 3.0279431 H 16.627614 V 9.6293449 H 14.481522 V 3.0279431 H 13.212217 V 1.3763182 Z"
       style="font-style:normal;font-weight:normal;font-stretch:condensed;font-family:Impact;-inkscape-font-specification:'Impact Condensed'"
       id="path101737" /></g><g
     aria-label="}"
     transform="matrix(0,-1.7577816,2.3396076,0,-15.945901,29.703296)"
     id="text1716"
     style="font-stretch:condensed;font-size:7.56197px;font-family:Impact;-inkscape-font-specification:'Impact, Condensed';text-align:center;text-anchor:middle;stroke-width:0.246556;stroke-dasharray:none" /><g
     id="g2395"
     transform="translate(0.4)"><path
       unicode=""
       d="m 3.599994,13.6 q 0.1724726,0 0.3867523,0.0261 l 0.198602,0.794415 0.026099,0.0054 q 0.2560928,0.07317 0.4912821,0.203828 l 0.026099,0.01044 0.700336,-0.418107 q 0.3188096,0.250861 0.5435411,0.548767 l -0.4181076,0.700336 0.01566,0.0261 q 0.1306594,0.229963 0.2038279,0.486056 l 0.0054,0.03138 0.7944141,0.198602 Q 6.6,16.438051 6.6,16.59484 q 0,0.177699 -0.026099,0.386752 l -0.7944141,0.198602 -0.0054,0.03138 Q 5.6956929,17.467667 5.570259,17.69763 l -0.01566,0.02616 0.4181076,0.700336 q -0.2508609,0.318809 -0.5435411,0.548767 l -0.700336,-0.423334 -0.026099,0.01566 q -0.2299634,0.130659 -0.4912821,0.203828 l -0.026099,0.01044 -0.198602,0.789189 q -0.2247375,0.02616 -0.3867523,0.02616 -0.1724726,0 -0.3867523,-0.02616 l -0.198602,-0.789189 -0.026159,-0.01044 Q 2.7323874,18.695878 2.4971981,18.565219 l -0.02616,-0.01566 -0.700336,0.423334 Q 1.4571189,18.722032 1.2271615,18.424126 L 1.6452691,17.72379 1.6296094,17.69763 Q 1.49895,17.462441 1.4310074,17.211574 l -0.01044,-0.03138 -0.7891882,-0.198602 Q 0.6,16.762081 0.6,16.59484 q 0,-0.172472 0.031379,-0.381526 l 0.7891882,-0.198602 0.01044,-0.03138 q 0.067943,-0.250867 0.198602,-0.486056 l 0.01566,-0.0261 L 1.227162,14.77084 q 0.245635,-0.31881 0.548767,-0.548767 l 0.6951101,0.418107 0.02616,-0.01044 q 0.2351893,-0.130659 0.4912821,-0.203828 l 0.026159,-0.0054 0.198602,-0.794415 Q 3.4379792,13.6 3.599994,13.6 Z m 0,1.87627 q -0.4651467,0 -0.7944081,0.329262 -0.3292614,0.329261 -0.3292614,0.791792 0,0.462537 0.3292614,0.791798 0.3292614,0.329262 0.7944081,0.329262 0.4651467,0 0.7944081,-0.329262 0.3292614,-0.329261 0.3292614,-0.791798 0,-0.462531 -0.3292614,-0.791792 Q 4.0651407,15.47627 3.599994,15.47627 Z"
       id="path2379"
       style="stroke-width:0.00522638" /><path
       unicode=""
       d="m 9.599994,11.6 q 0.172473,0 0.386752,0.0261 l 0.198602,0.794415 0.0261,0.0054 q 0.256093,0.07317 0.491282,0.203828 l 0.0261,0.01044 0.700336,-0.418107 q 0.31881,0.250861 0.543542,0.548767 l -0.418108,0.700336 0.01566,0.0261 q 0.130659,0.229963 0.203828,0.486056 l 0.0054,0.03138 0.794414,0.198602 Q 12.6,14.438051 12.6,14.59484 q 0,0.177699 -0.0261,0.386752 l -0.794414,0.198602 -0.0054,0.03138 q -0.07839,0.256093 -0.203827,0.486056 l -0.01566,0.02616 0.418108,0.700336 q -0.250861,0.318809 -0.543541,0.548767 l -0.700336,-0.423334 -0.0261,0.01566 q -0.229963,0.130659 -0.491282,0.203828 l -0.0261,0.01044 -0.198602,0.789189 q -0.224737,0.02616 -0.386752,0.02616 -0.172472,0 -0.386752,-0.02616 L 9.01464,16.779487 8.98848,16.769047 Q 8.732386,16.695877 8.497197,16.565219 l -0.02616,-0.01566 -0.7003359,0.423334 Q 7.4571189,16.722032 7.2271615,16.424126 L 7.6452691,15.72379 7.6296094,15.69763 Q 7.49895,15.462441 7.4310074,15.211574 l -0.01044,-0.03138 -0.7891882,-0.198602 Q 6.6,14.762081 6.6,14.59484 q 0,-0.172472 0.031379,-0.381526 l 0.7891882,-0.198602 0.01044,-0.03138 q 0.067943,-0.250867 0.198602,-0.486056 l 0.01566,-0.0261 L 7.227162,12.77084 q 0.245635,-0.31881 0.548767,-0.548767 l 0.69511,0.418107 0.02616,-0.01044 q 0.235189,-0.130659 0.491282,-0.203828 l 0.02616,-0.0054 0.198602,-0.794415 Q 9.437979,11.6 9.599994,11.6 Z m 0,1.87627 q -0.465147,0 -0.794408,0.329262 -0.329261,0.329261 -0.329261,0.791792 0,0.462537 0.329261,0.791798 0.329261,0.329262 0.794408,0.329262 0.465147,0 0.794408,-0.329262 0.329261,-0.329261 0.329261,-0.791798 0,-0.462531 -0.329261,-0.791792 Q 10.065141,13.47627 9.599994,13.47627 Z"
       id="path2388"
       style="stroke-width:0.00522638" /><path
       unicode=""
       d="m 15.599994,13.6 q 0.172473,0 0.386752,0.0261 l 0.198602,0.794415 0.0261,0.0054 q 0.256093,0.07317 0.491282,0.203828 l 0.0261,0.01044 0.700336,-0.418107 q 0.31881,0.250861 0.543542,0.548767 l -0.418108,0.700336 0.01566,0.0261 q 0.130659,0.229963 0.203828,0.486056 l 0.0054,0.03138 0.794414,0.198602 Q 18.6,16.438051 18.6,16.59484 q 0,0.177699 -0.0261,0.386752 l -0.794414,0.198602 -0.0054,0.03138 q -0.07839,0.256093 -0.203827,0.486056 l -0.01566,0.02616 0.418108,0.700336 q -0.250861,0.318809 -0.543541,0.548767 l -0.700336,-0.423334 -0.0261,0.01566 q -0.229963,0.130659 -0.491282,0.203828 l -0.0261,0.01044 -0.198602,0.789189 q -0.224737,0.02616 -0.386752,0.02616 -0.172472,0 -0.386752,-0.02616 l -0.198602,-0.789189 -0.02616,-0.01044 q -0.256094,-0.07317 -0.491283,-0.203828 l -0.02616,-0.01566 -0.700336,0.423334 q -0.313582,-0.250861 -0.54354,-0.548767 l 0.418108,-0.700336 -0.01566,-0.02616 Q 13.49895,17.462441 13.431007,17.211574 l -0.01044,-0.03138 -0.789188,-0.198602 Q 12.6,16.762081 12.6,16.59484 q 0,-0.172472 0.03138,-0.381526 l 0.789188,-0.198602 0.01044,-0.03138 q 0.06794,-0.250867 0.198602,-0.486056 l 0.01566,-0.0261 -0.418107,-0.700336 q 0.245635,-0.31881 0.548767,-0.548767 l 0.69511,0.418107 0.02616,-0.01044 q 0.235189,-0.130659 0.491282,-0.203828 l 0.02616,-0.0054 0.198602,-0.794415 Q 15.437979,13.6 15.599994,13.6 Z m 0,1.87627 q -0.465147,0 -0.794408,0.329262 -0.329261,0.329261 -0.329261,0.791792 0,0.462537 0.329261,0.791798 0.329261,0.329262 0.794408,0.329262 0.465147,0 0.794408,-0.329262 0.329261,-0.329261 0.329261,-0.791798 0,-0.462531 -0.329261,-0.791792 -0.329261,-0.329262 -0.794408,-0.329262 z"
       id="path2390"
       style="stroke-width:0.00522638" /></g></svg>
