<?xml version="1.0" encoding="UTF-8" standalone="no"?>
<svg
   inkscape:version="1.2.2 (b0a84865, 2022-12-01)"
   sodipodi:docname="computation-stats.svg"
   id="svg272"
   version="1.1"
   height="20"
   width="20"
   xml:space="preserve"
   xmlns:inkscape="http://www.inkscape.org/namespaces/inkscape"
   xmlns:sodipodi="http://sodipodi.sourceforge.net/DTD/sodipodi-0.dtd"
   xmlns="http://www.w3.org/2000/svg"
   xmlns:svg="http://www.w3.org/2000/svg"><defs
     id="defs276" /><sodipodi:namedview
     id="namedview274"
     pagecolor="#ffffff"
     bordercolor="#000000"
     borderopacity="0.25"
     inkscape:showpageshadow="2"
     inkscape:pageopacity="0.0"
     inkscape:pagecheckerboard="0"
     inkscape:deskcolor="#d1d1d1"
     showgrid="false"
     inkscape:zoom="5"
     inkscape:cx="12.7"
     inkscape:cy="21.9"
     inkscape:window-width="1390"
     inkscape:window-height="1205"
     inkscape:window-x="660"
     inkscape:window-y="121"
     inkscape:window-maximized="0"
     inkscape:current-layer="svg272" /><g
     aria-label="STAT"
     transform="scale(1.0581798,0.94501899)"
     id="text607"
     style="font-style:italic;font-weight:bold;font-size:10.4399px;font-family:Palatino;-inkscape-font-specification:'Palatino, Bold Italic';text-align:center;text-anchor:middle;stroke-width:1.35366"><path
       d="M 4.7629331,3.8741459 H 2.7697685 V 3.262433 q 0,-0.428199 -0.076464,-0.545444 -0.076464,-0.117245 -0.2548804,-0.117245 -0.1937091,0 -0.2956612,0.1580259 -0.096855,0.1580258 -0.096855,0.4791751 0,0.4129062 0.1121474,0.6219081 0.1070497,0.2090019 0.6066153,0.5046632 1.4324277,0.8513004 1.8045531,1.3967445 0.3721253,0.545444 0.3721253,1.7586746 0,0.8818861 -0.2090019,1.2998899 -0.2039043,0.4180039 -0.7952268,0.7034699 -0.5913224,0.2803684 -1.376354,0.2803684 -0.8614957,0 -1.4732086,-0.3262469 Q 0.48094268,9.1501698 0.2923312,8.6455067 0.10371972,8.1408435 0.10371972,7.2130789 V 6.6727325 H 2.0968843 v 1.0042287 q 0,0.4638823 0.081562,0.5964201 0.086659,0.1325378 0.3007589,0.1325378 0.2140995,0 0.3160516,-0.168221 0.1070498,-0.1682211 0.1070498,-0.4995656 0,-0.7289579 -0.1988067,-0.9532526 Q 2.4995953,6.5605852 1.6992709,6.0355316 0.89894651,5.5053804 0.63896852,5.2657928 0.37899053,5.0262053 0.20567187,4.6031038 0.03745082,4.1800024 0.03745082,3.522411 q 0,-0.948155 0.23958756,-1.3865493 Q 0.52172354,1.6974675 1.0620699,1.4527823 1.6024164,1.2029996 2.3670575,1.2029996 q 0.8360076,0 1.4222325,0.2701732 0.5913225,0.2701732 0.779934,0.6830794 0.1937091,0.4078086 0.1937091,1.3916469 z"
       style="font-style:normal;font-weight:normal;font-stretch:condensed;font-family:Impact;-inkscape-font-specification:'Impact Condensed'"
       id="path105655" /><path
       d="M 9.9370048,1.3763182 V 3.0279431 H 8.6626029 V 9.6293449 H 6.5165101 V 3.0279431 H 5.2472058 V 1.3763182 Z"
       style="font-style:normal;font-weight:normal;font-stretch:condensed;font-family:Impact;-inkscape-font-specification:'Impact Condensed'"
       id="path105657" /><path
       d="m 13.714333,1.3763182 1.228524,8.2530267 h -2.197069 l -0.10705,-1.4834038 h -0.769739 l -0.12744,1.4834038 H 9.519002 L 10.60989,1.3763182 Z M 12.577567,6.6829277 Q 12.414443,5.2810856 12.25132,3.2216522 11.925073,5.5869421 11.843511,6.6829277 Z"
       style="font-style:normal;font-weight:normal;font-stretch:condensed;font-family:Impact;-inkscape-font-specification:'Impact Condensed'"
       id="path105659" /><path
       d="M 19.056626,1.3763182 V 3.0279431 H 17.782224 V 9.6293449 H 15.636131 V 3.0279431 H 14.366827 V 1.3763182 Z"
       style="font-style:normal;font-weight:normal;font-stretch:condensed;font-family:Impact;-inkscape-font-specification:'Impact Condensed'"
       id="path105661" /></g><g
     aria-label="}"
     transform="matrix(0,-1.7577816,2.3396076,0,-15.945901,29.703296)"
     id="text1716"
     style="font-stretch:condensed;font-size:7.56197px;font-family:Impact;-inkscape-font-specification:'Impact, Condensed';text-align:center;text-anchor:middle;stroke-width:0.246556;stroke-dasharray:none" /><g
     id="g2395"
     transform="translate(0.4)"><path
       unicode=""
       d="m 3.599994,13.6 q 0.1724726,0 0.3867523,0.0261 l 0.198602,0.794415 0.026099,0.0054 q 0.2560928,0.07317 0.4912821,0.203828 l 0.026099,0.01044 0.700336,-0.418107 q 0.3188096,0.250861 0.5435411,0.548767 l -0.4181076,0.700336 0.01566,0.0261 q 0.1306594,0.229963 0.2038279,0.486056 l 0.0054,0.03138 0.7944141,0.198602 Q 6.6,16.438051 6.6,16.59484 q 0,0.177699 -0.026099,0.386752 l -0.7944141,0.198602 -0.0054,0.03138 Q 5.6956929,17.467667 5.570259,17.69763 l -0.01566,0.02616 0.4181076,0.700336 q -0.2508609,0.318809 -0.5435411,0.548767 l -0.700336,-0.423334 -0.026099,0.01566 q -0.2299634,0.130659 -0.4912821,0.203828 l -0.026099,0.01044 -0.198602,0.789189 q -0.2247375,0.02616 -0.3867523,0.02616 -0.1724726,0 -0.3867523,-0.02616 l -0.198602,-0.789189 -0.026159,-0.01044 Q 2.7323874,18.695878 2.4971981,18.565219 l -0.02616,-0.01566 -0.700336,0.423334 Q 1.4571189,18.722032 1.2271615,18.424126 L 1.6452691,17.72379 1.6296094,17.69763 Q 1.49895,17.462441 1.4310074,17.211574 l -0.01044,-0.03138 -0.7891882,-0.198602 Q 0.6,16.762081 0.6,16.59484 q 0,-0.172472 0.031379,-0.381526 l 0.7891882,-0.198602 0.01044,-0.03138 q 0.067943,-0.250867 0.198602,-0.486056 l 0.01566,-0.0261 L 1.227162,14.77084 q 0.245635,-0.31881 0.548767,-0.548767 l 0.6951101,0.418107 0.02616,-0.01044 q 0.2351893,-0.130659 0.4912821,-0.203828 l 0.026159,-0.0054 0.198602,-0.794415 Q 3.4379792,13.6 3.599994,13.6 Z m 0,1.87627 q -0.4651467,0 -0.7944081,0.329262 -0.3292614,0.329261 -0.3292614,0.791792 0,0.462537 0.3292614,0.791798 0.3292614,0.329262 0.7944081,0.329262 0.4651467,0 0.7944081,-0.329262 0.3292614,-0.329261 0.3292614,-0.791798 0,-0.462531 -0.3292614,-0.791792 Q 4.0651407,15.47627 3.599994,15.47627 Z"
       id="path2379"
       style="stroke-width:0.00522638" /><path
       unicode=""
       d="m 9.599994,11.6 q 0.172473,0 0.386752,0.0261 l 0.198602,0.794415 0.0261,0.0054 q 0.256093,0.07317 0.491282,0.203828 l 0.0261,0.01044 0.700336,-0.418107 q 0.31881,0.250861 0.543542,0.548767 l -0.418108,0.700336 0.01566,0.0261 q 0.130659,0.229963 0.203828,0.486056 l 0.0054,0.03138 0.794414,0.198602 Q 12.6,14.438051 12.6,14.59484 q 0,0.177699 -0.0261,0.386752 l -0.794414,0.198602 -0.0054,0.03138 q -0.07839,0.256093 -0.203827,0.486056 l -0.01566,0.02616 0.418108,0.700336 q -0.250861,0.318809 -0.543541,0.548767 l -0.700336,-0.423334 -0.0261,0.01566 q -0.229963,0.130659 -0.491282,0.203828 l -0.0261,0.01044 -0.198602,0.789189 q -0.224737,0.02616 -0.386752,0.02616 -0.172472,0 -0.386752,-0.02616 L 9.01464,16.779487 8.98848,16.769047 Q 8.732386,16.695877 8.497197,16.565219 l -0.02616,-0.01566 -0.7003359,0.423334 Q 7.4571189,16.722032 7.2271615,16.424126 L 7.6452691,15.72379 7.6296094,15.69763 Q 7.49895,15.462441 7.4310074,15.211574 l -0.01044,-0.03138 -0.7891882,-0.198602 Q 6.6,14.762081 6.6,14.59484 q 0,-0.172472 0.031379,-0.381526 l 0.7891882,-0.198602 0.01044,-0.03138 q 0.067943,-0.250867 0.198602,-0.486056 l 0.01566,-0.0261 L 7.227162,12.77084 q 0.245635,-0.31881 0.548767,-0.548767 l 0.69511,0.418107 0.02616,-0.01044 q 0.235189,-0.130659 0.491282,-0.203828 l 0.02616,-0.0054 0.198602,-0.794415 Q 9.437979,11.6 9.599994,11.6 Z m 0,1.87627 q -0.465147,0 -0.794408,0.329262 -0.329261,0.329261 -0.329261,0.791792 0,0.462537 0.329261,0.791798 0.329261,0.329262 0.794408,0.329262 0.465147,0 0.794408,-0.329262 0.329261,-0.329261 0.329261,-0.791798 0,-0.462531 -0.329261,-0.791792 Q 10.065141,13.47627 9.599994,13.47627 Z"
       id="path2388"
       style="stroke-width:0.00522638" /><path
       unicode=""
       d="m 15.599994,13.6 q 0.172473,0 0.386752,0.0261 l 0.198602,0.794415 0.0261,0.0054 q 0.256093,0.07317 0.491282,0.203828 l 0.0261,0.01044 0.700336,-0.418107 q 0.31881,0.250861 0.543542,0.548767 l -0.418108,0.700336 0.01566,0.0261 q 0.130659,0.229963 0.203828,0.486056 l 0.0054,0.03138 0.794414,0.198602 Q 18.6,16.438051 18.6,16.59484 q 0,0.177699 -0.0261,0.386752 l -0.794414,0.198602 -0.0054,0.03138 q -0.07839,0.256093 -0.203827,0.486056 l -0.01566,0.02616 0.418108,0.700336 q -0.250861,0.318809 -0.543541,0.548767 l -0.700336,-0.423334 -0.0261,0.01566 q -0.229963,0.130659 -0.491282,0.203828 l -0.0261,0.01044 -0.198602,0.789189 q -0.224737,0.02616 -0.386752,0.02616 -0.172472,0 -0.386752,-0.02616 l -0.198602,-0.789189 -0.02616,-0.01044 q -0.256094,-0.07317 -0.491283,-0.203828 l -0.02616,-0.01566 -0.700336,0.423334 q -0.313582,-0.250861 -0.54354,-0.548767 l 0.418108,-0.700336 -0.01566,-0.02616 Q 13.49895,17.462441 13.431007,17.211574 l -0.01044,-0.03138 -0.789188,-0.198602 Q 12.6,16.762081 12.6,16.59484 q 0,-0.172472 0.03138,-0.381526 l 0.789188,-0.198602 0.01044,-0.03138 q 0.06794,-0.250867 0.198602,-0.486056 l 0.01566,-0.0261 -0.418107,-0.700336 q 0.245635,-0.31881 0.548767,-0.548767 l 0.69511,0.418107 0.02616,-0.01044 q 0.235189,-0.130659 0.491282,-0.203828 l 0.02616,-0.0054 0.198602,-0.794415 Q 15.437979,13.6 15.599994,13.6 Z m 0,1.87627 q -0.465147,0 -0.794408,0.329262 -0.329261,0.329261 -0.329261,0.791792 0,0.462537 0.329261,0.791798 0.329261,0.329262 0.794408,0.329262 0.465147,0 0.794408,-0.329262 0.329261,-0.329261 0.329261,-0.791798 0,-0.462531 -0.329261,-0.791792 -0.329261,-0.329262 -0.794408,-0.329262 z"
       id="path2390"
       style="stroke-width:0.00522638" /></g></svg>
