<?xml version="1.0" encoding="UTF-8" standalone="no"?>
<svg
   inkscape:version="1.2.2 (b0a84865, 2022-12-01)"
   sodipodi:docname="data-media.svg"
   id="svg272"
   version="1.1"
   height="20"
   width="20"
   xml:space="preserve"
   xmlns:inkscape="http://www.inkscape.org/namespaces/inkscape"
   xmlns:sodipodi="http://sodipodi.sourceforge.net/DTD/sodipodi-0.dtd"
   xmlns="http://www.w3.org/2000/svg"
   xmlns:svg="http://www.w3.org/2000/svg"><defs
     id="defs276"><marker
       style="overflow:visible"
       id="Dot"
       refX="0"
       refY="0"
       orient="auto"
       inkscape:stockid="Dot"
       markerWidth="2"
       markerHeight="2"
       viewBox="0 0 5.6666667 5.6666667"
       inkscape:isstock="true"
       inkscape:collect="always"
       preserveAspectRatio="xMidYMid"><path
         transform="scale(0.5)"
         style="fill:context-stroke;fill-rule:evenodd;stroke:context-stroke;stroke-width:1pt"
         d="M 5,0 C 5,2.76 2.76,5 0,5 -2.76,5 -5,2.76 -5,0 c 0,-2.76 2.3,-5 5,-5 2.76,0 5,2.24 5,5 z"
         id="Dot1"
         sodipodi:nodetypes="sssss" /></marker><marker
       style="overflow:visible"
       id="TriangleStart"
       refX="0"
       refY="0"
       orient="auto-start-reverse"
       inkscape:stockid="TriangleStart"
       markerWidth="3.3333333"
       markerHeight="4"
       viewBox="0 0 5.3244081 6.1553851"
       inkscape:isstock="true"
       inkscape:collect="always"
       preserveAspectRatio="xMidYMid"><path
         transform="scale(0.5)"
         style="fill:context-stroke;fill-rule:evenodd;stroke:context-stroke;stroke-width:1pt"
         d="M 5.77,0 -2.88,5 V -5 Z"
         id="path135" /></marker></defs><sodipodi:namedview
     id="namedview274"
     pagecolor="#ffffff"
     bordercolor="#000000"
     borderopacity="0.25"
     inkscape:showpageshadow="2"
     inkscape:pageopacity="0.0"
     inkscape:pagecheckerboard="0"
     inkscape:deskcolor="#d1d1d1"
     showgrid="false"
     inkscape:zoom="5"
     inkscape:cx="11.7"
     inkscape:cy="26.9"
     inkscape:window-width="1390"
     inkscape:window-height="1205"
     inkscape:window-x="538"
     inkscape:window-y="102"
     inkscape:window-maximized="0"
     inkscape:current-layer="svg272" /><g
     aria-label="}"
     transform="matrix(0,-1.7577816,2.3396076,0,-15.945901,29.703296)"
     id="text1716"
     style="font-stretch:condensed;font-size:7.56197px;font-family:Impact;-inkscape-font-specification:'Impact, Condensed';text-align:center;text-anchor:middle;stroke-width:0.246556;stroke-dasharray:none" /><path
     style="fill:none;stroke:#000000;stroke-width:1.04203;stroke-dasharray:none;stroke-opacity:1;marker-start:url(#Dot);marker-end:url(#TriangleStart)"
     d="M 2.8289372,17.8 H 4.5255429 6.2221486 16.401783"
     id="path2948"
     sodipodi:nodetypes="cccc" /><path
     unicode=""
     d="M 3.1083333,1.2 H 17.291667 Q 17.415,1.2 17.5075,1.2925 17.6,1.385 17.6,1.5083333 V 14.458333 q 0,0.123334 -0.0925,0.215834 -0.0925,0.0925 -0.215833,0.0925 H 3.1083333 Q 2.985,14.766667 2.8925,14.674167 2.8,14.581667 2.8,14.458333 V 1.5083333 Q 2.8,1.385 2.8925,1.2925 2.985,1.2 3.1083333,1.2 Z m 0.925,1.2333333 V 3.6666667 H 5.2666667 V 2.4333333 Z m 9.5583337,0 H 6.8083333 Q 6.685,2.4333333 6.5925,2.5258333 6.5,2.6183333 6.5,2.7416667 v 4.3166666 q 0,0.1233334 0.0925,0.2158334 0.0925,0.0925 0.2158333,0.0925 h 6.7833337 q 0.123333,0 0.215833,-0.0925 Q 13.9,7.1816667 13.9,7.0583333 V 2.7416667 q 0,-0.1233334 -0.0925,-0.2158334 -0.0925,-0.0925 -0.215833,-0.0925 z m 1.541666,0 v 1.2333334 h 1.233334 V 2.4333333 Z M 4.0333333,4.9 V 6.1333333 H 5.2666667 V 4.9 Z m 11.0999997,0 v 1.2333333 h 1.233334 V 4.9 Z M 4.0333333,7.3666667 V 8.6 H 5.2666667 V 7.3666667 Z m 11.0999997,0 V 8.6 h 1.233334 V 7.3666667 Z M 13.591667,8.6 H 6.8083333 Q 6.685,8.6 6.5925,8.6925 6.5,8.785 6.5,8.9083333 V 13.225 q 0,0.123333 0.0925,0.215833 0.0925,0.0925 0.2158333,0.0925 h 6.7833337 q 0.123333,0 0.215833,-0.0925 Q 13.9,13.348333 13.9,13.225 V 8.9083333 Q 13.9,8.785 13.8075,8.6925 13.715,8.6 13.591667,8.6 Z M 4.0333333,9.833333 v 1.233334 H 5.2666667 V 9.833333 Z m 11.0999997,0 v 1.233334 h 1.233334 V 9.833333 Z M 4.0333333,12.3 v 1.233333 H 5.2666667 V 12.3 Z m 11.0999997,0 v 1.233333 h 1.233334 V 12.3 Z"
     id="path23120"
     style="stroke-width:0.0123333" /></svg>
