<?xml version="1.0" encoding="UTF-8" standalone="no"?>
<svg
   inkscape:version="1.2.2 (b0a84865, 2022-12-01)"
   sodipodi:docname="data-agnostic.svg"
   id="svg272"
   version="1.1"
   height="20"
   width="20"
   xml:space="preserve"
   xmlns:inkscape="http://www.inkscape.org/namespaces/inkscape"
   xmlns:sodipodi="http://sodipodi.sourceforge.net/DTD/sodipodi-0.dtd"
   xmlns="http://www.w3.org/2000/svg"
   xmlns:svg="http://www.w3.org/2000/svg"><defs
     id="defs276"><marker
       style="overflow:visible"
       id="Dot"
       refX="0"
       refY="0"
       orient="auto"
       inkscape:stockid="Dot"
       markerWidth="2"
       markerHeight="2"
       viewBox="0 0 5.6666667 5.6666667"
       inkscape:isstock="true"
       inkscape:collect="always"
       preserveAspectRatio="xMidYMid"><path
         transform="scale(0.5)"
         style="fill:context-stroke;fill-rule:evenodd;stroke:context-stroke;stroke-width:1pt"
         d="M 5,0 C 5,2.76 2.76,5 0,5 -2.76,5 -5,2.76 -5,0 c 0,-2.76 2.3,-5 5,-5 2.76,0 5,2.24 5,5 z"
         id="Dot1"
         sodipodi:nodetypes="sssss" /></marker><marker
       style="overflow:visible"
       id="TriangleStart"
       refX="0"
       refY="0"
       orient="auto-start-reverse"
       inkscape:stockid="TriangleStart"
       markerWidth="3.3333333"
       markerHeight="4"
       viewBox="0 0 5.3244081 6.1553851"
       inkscape:isstock="true"
       inkscape:collect="always"
       preserveAspectRatio="xMidYMid"><path
         transform="scale(0.5)"
         style="fill:context-stroke;fill-rule:evenodd;stroke:context-stroke;stroke-width:1pt"
         d="M 5.77,0 -2.88,5 V -5 Z"
         id="path135" /></marker></defs><sodipodi:namedview
     id="namedview274"
     pagecolor="#ffffff"
     bordercolor="#000000"
     borderopacity="0.25"
     inkscape:showpageshadow="2"
     inkscape:pageopacity="0.0"
     inkscape:pagecheckerboard="0"
     inkscape:deskcolor="#d1d1d1"
     showgrid="false"
     inkscape:zoom="5"
     inkscape:cx="12.7"
     inkscape:cy="27.1"
     inkscape:window-width="1390"
     inkscape:window-height="1205"
     inkscape:window-x="660"
     inkscape:window-y="121"
     inkscape:window-maximized="0"
     inkscape:current-layer="svg272" /><g
     aria-label="}"
     transform="matrix(0,-1.7577816,2.3396076,0,-15.945901,29.703296)"
     id="text1716"
     style="font-stretch:condensed;font-size:7.56197px;font-family:Impact;-inkscape-font-specification:'Impact, Condensed';text-align:center;text-anchor:middle;stroke-width:0.246556;stroke-dasharray:none" /><path
     style="fill:none;stroke:#000000;stroke-width:1.04203;stroke-dasharray:none;stroke-opacity:1;marker-start:url(#Dot);marker-end:url(#TriangleStart)"
     d="M 2.8289372,17.8 H 4.5255429 6.2221486 16.401783"
     id="path2948"
     sodipodi:nodetypes="cccc" /><g
     aria-label="}"
     transform="matrix(0,-1.7577816,2.3396076,0,-14.414236,57.638839)"
     id="text1716-9"
     style="font-stretch:condensed;font-size:7.56197px;font-family:Impact;-inkscape-font-specification:'Impact, Condensed';text-align:center;text-anchor:middle;stroke-width:0.246556;stroke-dasharray:none" /><g
     aria-label="Agn"
     transform="scale(1.0581798,0.94501899)"
     id="text607"
     style="font-style:italic;font-weight:bold;font-size:10.4399px;font-family:Palatino;-inkscape-font-specification:'Palatino, Bold Italic';text-align:center;text-anchor:middle;stroke-width:1.35366"><path
       d="M 5.7830438,3.1247065 7.0115672,11.377733 H 4.8144983 L 4.7074486,9.8943294 H 3.9377098 L 3.8102696,11.377733 H 1.5877127 L 2.6786007,3.1247065 Z M 4.6462773,8.431316 Q 4.4831538,7.0294739 4.3200304,4.9700405 3.9937835,7.3353304 3.9122218,8.431316 Z"
       style="font-style:normal;font-weight:normal;font-stretch:condensed;font-family:Impact;-inkscape-font-specification:'Impact Condensed'"
       id="path107670" /><path
       d="m 11.997027,4.6132079 v 5.209755 q 0,1.0552051 -0.05098,1.3661591 -0.04588,0.305856 -0.341539,0.647396 -0.295662,0.346637 -0.825813,0.525054 -0.525054,0.183513 -1.3253779,0.183513 -0.9838383,0 -1.5802584,-0.336442 -0.5964201,-0.331344 -0.6168105,-1.310085 h 1.9982622 q 0,0.44859 0.3262469,0.44859 0.2344899,0 0.3109541,-0.137636 0.076464,-0.137635 0.076464,-0.576029 v -0.509761 q -0.2650756,0.239587 -0.5607369,0.36193 -0.2905636,0.122342 -0.6117129,0.122342 -0.5556392,0 -0.9175694,-0.224294 Q 7.5213278,10.159405 7.38879,9.7974749 7.2562522,9.4304471 7.2562522,8.7575629 V 6.300516 q 0,-0.9634478 0.3466373,-1.3865492 0.3466374,-0.4231015 1.0552048,-0.4231015 0.3874182,0 0.7034699,0.1580259 0.3211492,0.1580258 0.570932,0.4740775 L 10.080327,4.6132079 Z M 9.9324962,6.4075658 q 0,-0.4638823 -0.056074,-0.5913225 -0.050976,-0.1274402 -0.2344899,-0.1274402 -0.1784163,0 -0.2548804,0.1478307 -0.071366,0.142733 -0.071366,0.570932 v 2.273533 q 0,0.4536871 0.056074,0.5913225 0.056074,0.1325378 0.2344899,0.1325378 0.2039043,0 0.2650756,-0.1631235 0.061171,-0.1631234 0.061171,-0.7391531 z"
       style="font-style:normal;font-weight:normal;font-stretch:condensed;font-family:Impact;-inkscape-font-specification:'Impact Condensed'"
       id="path107672" /><path
       d="m 14.826199,4.6132079 -0.03568,0.6219082 q 0.224295,-0.3721254 0.545444,-0.5556393 0.326247,-0.1886115 0.749348,-0.1886115 0.530152,0 0.866594,0.2497828 0.336442,0.2497828 0.433296,0.6321034 0.09686,0.3772229 0.09686,1.2642066 V 11.377733 H 15.422619 V 6.6930318 q 0,-0.6983722 -0.04588,-0.8513004 -0.04588,-0.1529283 -0.25488,-0.1529283 -0.219198,0 -0.275271,0.1784163 -0.05607,0.1733187 -0.05607,0.9379598 V 11.377733 H 12.731083 V 4.6132079 Z"
       style="font-style:normal;font-weight:normal;font-stretch:condensed;font-family:Impact;-inkscape-font-specification:'Impact Condensed'"
       id="path107674" /></g><g
     aria-label="}"
     transform="matrix(0,-1.7577816,2.3396076,0,-13.445901,45.955555)"
     id="text1716-5"
     style="font-stretch:condensed;font-size:7.56197px;font-family:Impact;-inkscape-font-specification:'Impact, Condensed';text-align:center;text-anchor:middle;stroke-width:0.246556;stroke-dasharray:none" /></svg>
