<?xml version="1.0" encoding="UTF-8" standalone="no"?>
<svg
   inkscape:version="1.2.2 (b0a84865, 2022-12-01)"
   sodipodi:docname="data-mixed.svg"
   id="svg272"
   version="1.1"
   height="20"
   width="20"
   xml:space="preserve"
   xmlns:inkscape="http://www.inkscape.org/namespaces/inkscape"
   xmlns:sodipodi="http://sodipodi.sourceforge.net/DTD/sodipodi-0.dtd"
   xmlns="http://www.w3.org/2000/svg"
   xmlns:svg="http://www.w3.org/2000/svg"><defs
     id="defs276"><marker
       style="overflow:visible"
       id="Dot"
       refX="0"
       refY="0"
       orient="auto"
       inkscape:stockid="Dot"
       markerWidth="2"
       markerHeight="2"
       viewBox="0 0 5.6666667 5.6666667"
       inkscape:isstock="true"
       inkscape:collect="always"
       preserveAspectRatio="xMidYMid"><path
         transform="scale(0.5)"
         style="fill:context-stroke;fill-rule:evenodd;stroke:context-stroke;stroke-width:1pt"
         d="M 5,0 C 5,2.76 2.76,5 0,5 -2.76,5 -5,2.76 -5,0 c 0,-2.76 2.3,-5 5,-5 2.76,0 5,2.24 5,5 z"
         id="Dot1"
         sodipodi:nodetypes="sssss" /></marker><marker
       style="overflow:visible"
       id="TriangleStart"
       refX="0"
       refY="0"
       orient="auto-start-reverse"
       inkscape:stockid="TriangleStart"
       markerWidth="3.3333333"
       markerHeight="4"
       viewBox="0 0 5.3244081 6.1553851"
       inkscape:isstock="true"
       inkscape:collect="always"
       preserveAspectRatio="xMidYMid"><path
         transform="scale(0.5)"
         style="fill:context-stroke;fill-rule:evenodd;stroke:context-stroke;stroke-width:1pt"
         d="M 5.77,0 -2.88,5 V -5 Z"
         id="path135" /></marker></defs><sodipodi:namedview
     id="namedview274"
     pagecolor="#ffffff"
     bordercolor="#000000"
     borderopacity="0.25"
     inkscape:showpageshadow="2"
     inkscape:pageopacity="0.0"
     inkscape:pagecheckerboard="0"
     inkscape:deskcolor="#d1d1d1"
     showgrid="false"
     inkscape:zoom="5"
     inkscape:cx="12.7"
     inkscape:cy="27.3"
     inkscape:window-width="1390"
     inkscape:window-height="1205"
     inkscape:window-x="660"
     inkscape:window-y="121"
     inkscape:window-maximized="0"
     inkscape:current-layer="svg272" /><g
     aria-label="}"
     transform="matrix(0,-1.7577816,2.3396076,0,-15.945901,29.703296)"
     id="text1716"
     style="font-stretch:condensed;font-size:7.56197px;font-family:Impact;-inkscape-font-specification:'Impact, Condensed';text-align:center;text-anchor:middle;stroke-width:0.246556;stroke-dasharray:none" /><path
     style="fill:none;stroke:#000000;stroke-width:1.04203;stroke-dasharray:none;stroke-opacity:1;marker-start:url(#Dot);marker-end:url(#TriangleStart)"
     d="M 2.8289372,17.8 H 4.5255429 6.2221486 16.401783"
     id="path2948"
     sodipodi:nodetypes="cccc" /><g
     aria-label="abc"
     transform="matrix(0.64753696,-0.57266947,0.76636476,0.86655485,0,0)"
     id="text1702"
     style="font-stretch:condensed;font-size:6.28372px;font-family:Impact;-inkscape-font-specification:'Impact, Condensed';text-align:center;text-anchor:middle;stroke-width:0.985829"><path
       d="m -1.5131142,6.6789528 v 0.2301167 q -0.3528456,-0.015341 -0.6259174,-0.015341 -0.2577307,0 -0.5001203,0.015341 l -0.027614,-0.03375 0.027614,-0.4019372 q -0.110456,0.070569 -0.6504632,0.4847792 -0.13807,0.030682 -0.2638672,0.030682 -0.3344362,0 -0.524666,-0.1963662 -0.1871616,-0.1963663 -0.1871616,-0.564553 0,-0.248526 0.082842,-0.4080736 0.08591,-0.1595476 0.1810251,-0.2331849 0.098183,-0.076706 0.3006858,-0.1472747 0.4847792,-0.1718205 1.0616051,-0.2700036 0.00614,-0.3651185 -0.1503429,-0.5553483 -0.1595476,-0.1902298 -0.4847792,-0.1902298 -0.1319336,0 -0.2515943,0.03375 -0.05216,0.015341 -0.1227289,0.061365 l -0.1288653,0.3098905 -0.2086392,-0.046023 0.018409,-0.3958007 q 0.2270485,-0.1534111 0.4326194,-0.2669354 0.2055709,-0.1135242 0.2884129,-0.13807 0.1135242,-0.03375 0.3190952,-0.03375 0.3344362,0 0.5492118,0.098183 0.2178438,0.095115 0.3190952,0.2270485 0.1043195,0.1319335 0.1411382,0.2822765 0.039887,0.1503429 0.039887,0.3804596 0,0.098183 -0.015341,0.5123931 -0.0092,0.2761401 -0.0092,0.4510288 0,0.5461436 0.030682,0.6627361 0.012273,0.055228 0.049092,0.073637 0.049092,0.024546 0.3098905,0.042955 z M -2.6391519,5.427118 q -0.2607989,0.055228 -0.4786427,0.1350018 -0.2147756,0.076706 -0.2976176,0.193298 -0.082842,0.1135243 -0.082842,0.2884129 0,0.1963663 0.098183,0.3037541 0.1012513,0.1073878 0.2638671,0.1073878 0.13807,0 0.2761401,-0.079774 0.1411382,-0.079774 0.220912,-0.2025027 z"
       style="font-weight:bold;font-stretch:normal;font-family:Palatino;-inkscape-font-specification:'Palatino Bold'"
       id="path110488" /><path
       d="M -1.2584517,2.8804932 V 2.6595811 q 0.69648653,-0.073637 1.18126571,-0.2700035 0.04602334,0.012273 0.08284202,0.042955 Q -0.0250262,3.7058451 -0.0250262,3.9083478 V 4.4851736 L 0.34622874,4.1783514 q 0.1626158,-0.1319336 0.29454938,-0.1810252 0.1350018,-0.049091 0.34057271,-0.049091 0.52466607,0 0.84376127,0.3252316 0.3190951,0.3252316 0.3190951,0.8744434 0,0.3313681 -0.1165924,0.6443268 Q 1.9110223,6.102127 1.7146561,6.3015615 1.687042,6.3291755 1.2666955,6.6206566 0.84941726,6.9121378 0.79725747,6.9366835 0.61930056,7.0164573 0.3400923,7.0164573 q -0.18716159,0 -0.3651185,-0.058296 -0.17795691,-0.055228 -0.40193717,-0.1902298 L -0.69696696,6.9949798 -0.83810521,6.94282 q 0.0613645,-0.9358079 0.0613645,-2.2398026 0,-1.2886535 -0.0368187,-1.6322944 -0.0153411,-0.1135243 -0.0521598,-0.1411383 -0.0490916,-0.03375 -0.39273249,-0.049091 z m 1.2334255,1.9329803 q -0.0061365,0.2362531 -0.0061365,0.6259174 0,0.5215978 0.0061365,0.8038743 0.11352424,0.1626158 0.24545781,0.2362532 0.18102514,0.098183 0.38966428,0.098183 0.22398026,0 0.38966428,-0.1165925 Q 1.1685124,6.3414483 1.2605591,6.074513 1.355674,5.8075776 1.355674,5.4854142 q 0,-0.4786427 -0.2178438,-0.730237 Q 0.91998638,4.503583 0.59168656,4.503583 q -0.20557092,0 -0.37125495,0.095115 -0.1626158,0.095115 -0.24545781,0.2147756 z"
       style="font-weight:bold;font-stretch:normal;font-family:Palatino;-inkscape-font-specification:'Palatino Bold'"
       id="path110490" /><path
       d="M 5.1111785,6.5040641 4.9761767,6.8016817 Q 4.7123095,6.9336153 4.5466255,6.9735022 4.3840097,7.0164573 4.153893,7.0164573 q -0.5031885,0 -0.8161472,-0.1963662 Q 3.0247871,6.6237248 2.8621713,6.2586063 2.7455788,6.0008756 2.7455788,5.5713245 q 0,-0.3221634 0.061364,-0.5277343 0.061364,-0.205571 0.1748887,-0.3620503 0.076706,-0.1043196 0.205571,-0.1963663 L 3.6599091,4.187556 Q 3.8992305,4.0341449 3.988209,4.0034627 q 0.1472747,-0.055228 0.3835278,-0.055228 0.1963663,0 0.3651185,0.03375 0.1718205,0.030682 0.3160269,0.095115 l 0.030682,0.05216 -0.076706,0.5001203 q -0.0092,0.067501 -0.030682,0.4234147 H 4.7368553 Q 4.718446,4.779723 4.690832,4.6477894 4.6263993,4.5434699 4.4913975,4.4790372 4.3563957,4.4115363 4.1600294,4.4115363 q -0.2331849,0 -0.3712549,0.08591 -0.13807,0.08591 -0.2025027,0.288413 -0.064433,0.2025027 -0.064433,0.4909156 0,0.386596 0.1319336,0.6934183 0.1319336,0.303754 0.3467092,0.4479605 0.2178438,0.1411383 0.5338707,0.1411383 0.1442065,0 0.2730718,-0.030682 0.1288654,-0.03375 0.2454578,-0.095115 z"
       style="font-weight:bold;font-stretch:normal;font-family:Palatino;-inkscape-font-specification:'Palatino Bold'"
       id="path110492" /></g><g
     aria-label="}"
     transform="matrix(0,-1.7577816,2.3396076,0,-14.414236,57.638839)"
     id="text1716-9"
     style="font-stretch:condensed;font-size:7.56197px;font-family:Impact;-inkscape-font-specification:'Impact, Condensed';text-align:center;text-anchor:middle;stroke-width:0.246556;stroke-dasharray:none" /><g
     id="layer1"
     inkscape:label="Layer 1"
     transform="matrix(0.53985981,0,0,0.53985981,8.6773571,-4.1411629)"><ellipse
       style="fill:#000000;fill-opacity:1;stroke:none"
       id="path5036"
       transform="matrix(1.1901923,0,0,1.1908942,-1.5217418,12.273944)"
       cx="3.8"
       cy="4.4749999"
       rx="1.6"
       ry="1.525" /><ellipse
       transform="matrix(1.1901923,0,0,1.1908942,5.6568563,8.7641512)"
       id="path5546"
       style="fill:#000000;fill-opacity:1;stroke:none"
       cx="3.8"
       cy="4.4749999"
       rx="1.6"
       ry="1.525" /><ellipse
       style="fill:#000000;fill-opacity:1;stroke:none"
       id="path5548"
       transform="matrix(1.1901923,0,0,1.1908942,12.998605,20.558688)"
       cx="3.8"
       cy="4.4749999"
       rx="1.6"
       ry="1.525" /><ellipse
       transform="matrix(1.1901923,0,0,1.1908942,5.6976438,24.558219)"
       id="path5550"
       style="fill:#000000;fill-opacity:1;stroke:none"
       cx="3.8"
       cy="4.4749999"
       rx="1.6"
       ry="1.525" /><ellipse
       style="fill:#000000;fill-opacity:1;stroke:none"
       id="path5552"
       transform="matrix(1.1901923,0,0,1.1908942,-1.4401668,20.477064)"
       cx="3.8"
       cy="4.4749999"
       rx="1.6"
       ry="1.525" /><path
       style="fill:none;stroke:#000000;stroke-width:1px;stroke-linecap:butt;stroke-linejoin:miter;stroke-opacity:1"
       d="M 10.273866,14.236243 V 29.499761"
       id="path5566"
       inkscape:connector-curvature="0"
       sodipodi:nodetypes="cc" /><path
       style="fill:none;stroke:#000000;stroke-width:1px;stroke-linecap:butt;stroke-linejoin:miter;stroke-opacity:1"
       d="M 2.6466059,17.501167 17.86034,26.030779"
       id="path5568"
       inkscape:connector-curvature="0"
       sodipodi:nodetypes="cc" /><path
       style="fill:none;stroke:#000000;stroke-width:1px;stroke-linecap:butt;stroke-linejoin:miter;stroke-opacity:1"
       d="m 3.0952682,25.826721 7.1785978,4.326024"
       id="path5570"
       inkscape:connector-curvature="0"
       sodipodi:nodetypes="cc" /><path
       style="fill:none;stroke:#000000;stroke-width:1px;stroke-linecap:butt;stroke-linejoin:miter;stroke-opacity:1"
       d="M 2.6873933,17.786848 10.233078,14.032185"
       id="path5572"
       inkscape:connector-curvature="0"
       sodipodi:nodetypes="cc" /><path
       style="fill:none;stroke:#000000;stroke-width:1px;stroke-linecap:butt;stroke-linejoin:miter;stroke-opacity:1"
       d="m 2.9321183,17.950094 0.2039374,7.060397"
       id="path5574"
       inkscape:connector-curvature="0" /><path
       style="fill:none;stroke:#000000;stroke-width:1px;stroke-linecap:butt;stroke-linejoin:miter;stroke-opacity:1"
       d="M 2.8913307,25.745098 H 16.677502"
       id="path5576"
       inkscape:connector-curvature="0"
       sodipodi:nodetypes="cc" /><path
       style="fill:none;stroke:#000000;stroke-width:1px;stroke-linecap:butt;stroke-linejoin:miter;stroke-opacity:1"
       d="m 10.396229,30.071123 7.097023,-4.20359"
       id="path5578"
       inkscape:connector-curvature="0"
       sodipodi:nodetypes="cc" /><path
       style="fill:none;stroke:#000000;stroke-width:1px;stroke-linecap:butt;stroke-linejoin:miter;stroke-opacity:1"
       d="M 2.8913307,25.949156 10.273866,13.90975"
       id="path5580"
       inkscape:connector-curvature="0"
       sodipodi:nodetypes="cc" /><ellipse
       style="fill:#000000;fill-opacity:1;stroke:none"
       id="path5582"
       transform="matrix(1.1901923,0,0,1.1908942,12.794667,12.171915)"
       cx="3.8"
       cy="4.4749999"
       rx="1.6"
       ry="1.525" /><path
       style="fill:none;stroke:#000000;stroke-width:1px;stroke-linecap:butt;stroke-linejoin:miter;stroke-opacity:1"
       d="m 10.314654,13.991374 7.056236,3.632228"
       id="path5584"
       inkscape:connector-curvature="0"
       sodipodi:nodetypes="cc" /><path
       style="fill:none;stroke:#000000;stroke-width:1px;stroke-linecap:butt;stroke-linejoin:miter;stroke-opacity:1"
       d="M 17.452464,24.96968 17.289315,17.133863"
       id="path5586"
       inkscape:connector-curvature="0" /></g><path
     unicode=""
     d="m 1.7289852,10 h 5.9371099 q 0.051668,0 0.090327,0.03529 0.038658,0.03529 0.038658,0.08245 v 4.947742 q 0,0.04716 -0.038658,0.08245 -0.038658,0.03529 -0.090327,0.03529 H 1.7289852 q -0.051668,0 -0.090327,-0.03529 Q 1.6,15.112629 1.6,15.06547 v -4.947743 q 0,-0.04716 0.038658,-0.08245 Q 1.6773168,10 1.7289852,10 Z m 0.3872033,0.471218 v 0.471205 h 0.5162629 v -0.471205 z m 4.0010932,0 H 3.2777986 q -0.051668,0 -0.090327,0.03529 -0.038658,0.03529 -0.038658,0.08245 v 1.649253 q 0,0.04716 0.038658,0.08245 0.038658,0.03529 0.090327,0.03529 h 2.8394831 q 0.051668,0 0.090327,-0.03529 0.038658,-0.03529 0.038658,-0.08245 v -1.649253 q 0,-0.04716 -0.038658,-0.08245 -0.038658,-0.03529 -0.090327,-0.03529 z m 0.6453472,0 v 0.471205 H 7.2788918 V 10.471218 Z M 2.1161885,11.41364 v 0.471218 H 2.6324514 V 11.41364 Z m 4.6464404,0 v 0.471218 H 7.2788918 V 11.41364 Z m -4.6464404,0.942424 v 0.471217 h 0.5162629 v -0.471217 z m 4.6464404,0 v 0.471217 H 7.2788918 V 12.356064 Z M 6.1172817,12.827281 H 3.2777986 q -0.051668,0 -0.090327,0.03529 -0.038658,0.03529 -0.038658,0.08245 v 1.649243 q 0,0.04716 0.038658,0.08245 0.038658,0.03529 0.090327,0.03529 h 2.8394831 q 0.051668,0 0.090327,-0.03529 0.038658,-0.03529 0.038658,-0.08245 v -1.649243 q 0,-0.04716 -0.038658,-0.08245 -0.038658,-0.03529 -0.090327,-0.03529 z m -4.0010932,0.471217 v 0.471207 h 0.5162629 v -0.471207 z m 4.6464404,0 v 0.471207 h 0.5162629 v -0.471207 z m -4.6464404,0.942423 v 0.471219 h 0.5162629 v -0.471219 z m 4.6464404,0 v 0.471219 h 0.5162629 v -0.471219 z"
     id="path424"
     style="stroke-width:0.00493229" /></svg>
