<?xml version="1.0" encoding="UTF-8" standalone="no"?>
<svg
   inkscape:version="1.2.2 (b0a84865, 2022-12-01)"
   sodipodi:docname="data-numerical.svg"
   id="svg272"
   version="1.1"
   height="20"
   width="20"
   xml:space="preserve"
   xmlns:inkscape="http://www.inkscape.org/namespaces/inkscape"
   xmlns:sodipodi="http://sodipodi.sourceforge.net/DTD/sodipodi-0.dtd"
   xmlns="http://www.w3.org/2000/svg"
   xmlns:svg="http://www.w3.org/2000/svg"><defs
     id="defs276"><marker
       style="overflow:visible"
       id="Dot"
       refX="0"
       refY="0"
       orient="auto"
       inkscape:stockid="Dot"
       markerWidth="2"
       markerHeight="2"
       viewBox="0 0 5.6666667 5.6666667"
       inkscape:isstock="true"
       inkscape:collect="always"
       preserveAspectRatio="xMidYMid"><path
         transform="scale(0.5)"
         style="fill:context-stroke;fill-rule:evenodd;stroke:context-stroke;stroke-width:1pt"
         d="M 5,0 C 5,2.76 2.76,5 0,5 -2.76,5 -5,2.76 -5,0 c 0,-2.76 2.3,-5 5,-5 2.76,0 5,2.24 5,5 z"
         id="Dot1"
         sodipodi:nodetypes="sssss" /></marker><marker
       style="overflow:visible"
       id="TriangleStart"
       refX="0"
       refY="0"
       orient="auto-start-reverse"
       inkscape:stockid="TriangleStart"
       markerWidth="3.3333333"
       markerHeight="4"
       viewBox="0 0 5.3244081 6.1553851"
       inkscape:isstock="true"
       inkscape:collect="always"
       preserveAspectRatio="xMidYMid"><path
         transform="scale(0.5)"
         style="fill:context-stroke;fill-rule:evenodd;stroke:context-stroke;stroke-width:1pt"
         d="M 5.77,0 -2.88,5 V -5 Z"
         id="path135" /></marker></defs><sodipodi:namedview
     id="namedview274"
     pagecolor="#ffffff"
     bordercolor="#000000"
     borderopacity="0.25"
     inkscape:showpageshadow="2"
     inkscape:pageopacity="0.0"
     inkscape:pagecheckerboard="0"
     inkscape:deskcolor="#d1d1d1"
     showgrid="false"
     inkscape:zoom="5"
     inkscape:cx="12.5"
     inkscape:cy="28.7"
     inkscape:window-width="1390"
     inkscape:window-height="1205"
     inkscape:window-x="660"
     inkscape:window-y="121"
     inkscape:window-maximized="0"
     inkscape:current-layer="svg272" /><g
     aria-label="}"
     transform="matrix(0,-1.7577816,2.3396076,0,-15.945901,29.703296)"
     id="text1716"
     style="font-stretch:condensed;font-size:7.56197px;font-family:Impact;-inkscape-font-specification:'Impact, Condensed';text-align:center;text-anchor:middle;stroke-width:0.246556;stroke-dasharray:none" /><path
     style="fill:none;stroke:#000000;stroke-width:1.04203;stroke-dasharray:none;stroke-opacity:1;marker-start:url(#Dot);marker-end:url(#TriangleStart)"
     d="M 2.8289372,17.8 H 4.5255429 6.2221486 16.401783"
     id="path2948"
     sodipodi:nodetypes="cccc" /><path
     unicode=""
     d="m 5.1,2.8 h 2 Q 7.31,2.8 7.455,2.945 7.6,3.09 7.6,3.3 v 2 Q 7.6,5.51 7.455,5.655 7.31,5.8 7.1,5.8 h -2 Q 4.89,5.8 4.745,5.655 4.6,5.51 4.6,5.3 v -2 Q 4.6,3.09 4.745,2.945 4.89,2.8 5.1,2.8 Z m 4,0 h 2 q 0.21,0 0.355,0.145 Q 11.6,3.09 11.6,3.3 v 2 q 0,0.21 -0.145,0.355 Q 11.31,5.8 11.1,5.8 h -2 Q 8.89,5.8 8.745,5.655 8.6,5.51 8.6,5.3 v -2 Q 8.6,3.09 8.745,2.945 8.89,2.8 9.1,2.8 Z m 4,0 h 2 q 0.21,0 0.355,0.145 Q 15.6,3.09 15.6,3.3 v 2 q 0,0.21 -0.145,0.355 Q 15.31,5.8 15.1,5.8 h -2 Q 12.89,5.8 12.745,5.655 12.6,5.51 12.6,5.3 v -2 Q 12.6,3.09 12.745,2.945 12.89,2.8 13.1,2.8 Z m -8,4 h 2 Q 7.31,6.8 7.455,6.945 7.6,7.09 7.6,7.3 v 2 Q 7.6,9.51 7.455,9.655 7.31,9.8 7.1,9.8 h -2 Q 4.89,9.8 4.745,9.655 4.6,9.51 4.6,9.3 v -2 Q 4.6,7.09 4.745,6.945 4.89,6.8 5.1,6.8 Z m 4,0 h 2 q 0.21,0 0.355,0.145 Q 11.6,7.09 11.6,7.3 v 2 q 0,0.21 -0.145,0.355 Q 11.31,9.8 11.1,9.8 h -2 Q 8.89,9.8 8.745,9.655 8.6,9.51 8.6,9.3 v -2 Q 8.6,7.09 8.745,6.945 8.89,6.8 9.1,6.8 Z m 4,0 h 2 q 0.21,0 0.355,0.145 Q 15.6,7.09 15.6,7.3 v 2 q 0,0.21 -0.145,0.355 Q 15.31,9.8 15.1,9.8 h -2 Q 12.89,9.8 12.745,9.655 12.6,9.51 12.6,9.3 v -2 Q 12.6,7.09 12.745,6.945 12.89,6.8 13.1,6.8 Z m -8,4 h 2 q 0.21,0 0.355,0.145 Q 7.6,11.09 7.6,11.3 v 2 q 0,0.21 -0.145,0.355 Q 7.31,13.8 7.1,13.8 h -2 Q 4.89,13.8 4.745,13.655 4.6,13.51 4.6,13.3 v -2 Q 4.6,11.09 4.745,10.945 4.89,10.8 5.1,10.8 Z m 4,0 h 2 q 0.21,0 0.355,0.145 Q 11.6,11.09 11.6,11.3 v 2 q 0,0.21 -0.145,0.355 Q 11.31,13.8 11.1,13.8 h -2 Q 8.89,13.8 8.745,13.655 8.6,13.51 8.6,13.3 v -2 Q 8.6,11.09 8.745,10.945 8.89,10.8 9.1,10.8 Z m 4,0 h 2 q 0.21,0 0.355,0.145 Q 15.6,11.09 15.6,11.3 v 2 q 0,0.21 -0.145,0.355 Q 15.31,13.8 15.1,13.8 h -2 q -0.21,0 -0.355,-0.145 Q 12.6,13.51 12.6,13.3 v -2 q 0,-0.21 0.145,-0.355 Q 12.89,10.8 13.1,10.8 Z"
     id="path26970"
     style="stroke-width:0.01" /><g
     aria-label="["
     transform="scale(0.82106139,1.2179357)"
     id="text1702"
     style="font-stretch:condensed;font-size:13.3333px;font-family:Impact;-inkscape-font-specification:'Impact, Condensed';text-align:center;text-anchor:middle;stroke-width:2.09181"><path
       d="m 1.7341115,1.2903211 0.039062,-0.045573 q 0.130208,-0.00651 0.4427072,0.00651 0.9244769,0.032552 0.9700497,0.032552 0.195312,0 1.6210896,-0.039062 v 0.520832 q -0.520832,0 -1.0026016,0.058594 -0.2018224,0.026042 -0.2799472,0.084635 -0.071614,0.052083 -0.130208,0.1822912 -0.052083,0.1236976 -0.071614,0.6705712 -0.032552,0.781248 -0.032552,1.6080689 l -0.00651,1.1914032 v 2.4023377 l 0.00651,1.1848928 q 0,0.9440079 0.039062,1.9531199 0.019531,0.234375 0.078125,0.377603 0.071614,0.130208 0.1497392,0.169271 0.084635,0.03906 0.292968,0.07813 0.4166656,0.03906 0.9570288,0.03255 v 0.520832 q -1.4387984,-0.04557 -1.595048,-0.04557 -0.058594,0 -0.9244769,0.03906 -0.3841136,0.01302 -0.5143216,0.0065 l -0.039062,-0.04557 q 0.058594,-0.768227 0.071614,-1.13281 0.019531,-0.358072 0.058594,-1.8684847 L 1.8838507,7.7291069 V 5.795518 q 0,-0.8333312 -0.052083,-2.7083265 -0.026042,-0.8658832 -0.097656,-1.7968704 z"
       style="font-weight:bold;font-stretch:normal;font-family:Palatino;-inkscape-font-specification:'Palatino Bold'"
       id="path133140" /></g><g
     aria-label="}"
     transform="matrix(0,-1.7577816,2.3396076,0,-14.414236,57.638839)"
     id="text1716-9"
     style="font-stretch:condensed;font-size:7.56197px;font-family:Impact;-inkscape-font-specification:'Impact, Condensed';text-align:center;text-anchor:middle;stroke-width:0.246556;stroke-dasharray:none" /><g
     aria-label="]"
     transform="scale(0.8210614,1.2179357)"
     id="text29023"
     style="font-stretch:condensed;font-size:13.3333px;font-family:Impact;-inkscape-font-specification:'Impact, Condensed';text-align:center;text-anchor:middle;stroke-width:2.09181"><path
       d="m 22.811832,12.234304 0.02604,0.04557 q -0.130208,0.0065 -0.507811,-0.0065 -0.957029,-0.03255 -1.002602,-0.03255 -0.195312,0 -1.621089,0.03906 v -0.520832 q 0.520832,0 1.002601,-0.05859 0.201823,-0.02604 0.273437,-0.08463 0.07813,-0.05208 0.130208,-0.182291 0.05859,-0.123698 0.07813,-0.670572 0.03255,-0.748696 0.03255,-1.6080685 l 0.0065,-1.2630176 V 5.5611436 l -0.0065,-1.1848928 q 0,-0.9440081 -0.03906,-1.8098913 -0.01953,-0.3776032 -0.09115,-0.5273424 -0.03906,-0.084635 -0.104167,-0.130208 -0.05859,-0.045573 -0.260416,-0.078125 -0.481769,-0.071614 -1.022132,-0.065104 v -0.520832 q 1.438798,0.045573 1.595048,0.045573 0.05859,0 1.119789,-0.039062 0.221353,-0.013021 0.351561,-0.00651 l 0.03906,0.045573 q -0.05859,0.7682272 -0.07813,1.1328096 -0.01302,0.358072 -0.05208,1.8749953 l -0.01953,1.497392 v 1.9335889 q 0,0.8398416 0.05208,2.7083261 0.02604,0.865884 0.09766,1.796871 z"
       style="font-weight:bold;font-stretch:normal;font-family:Palatino;-inkscape-font-specification:'Palatino Bold'"
       id="path133143" /></g></svg>
