<?xml version="1.0" encoding="UTF-8" standalone="no"?>
<svg
   inkscape:version="1.2.2 (b0a84865, 2022-12-01)"
   sodipodi:docname="data-textual.svg"
   id="svg272"
   version="1.1"
   height="20"
   width="20"
   xml:space="preserve"
   xmlns:inkscape="http://www.inkscape.org/namespaces/inkscape"
   xmlns:sodipodi="http://sodipodi.sourceforge.net/DTD/sodipodi-0.dtd"
   xmlns="http://www.w3.org/2000/svg"
   xmlns:svg="http://www.w3.org/2000/svg"><defs
     id="defs276"><marker
       style="overflow:visible"
       id="Dot"
       refX="0"
       refY="0"
       orient="auto"
       inkscape:stockid="Dot"
       markerWidth="2"
       markerHeight="2"
       viewBox="0 0 5.6666667 5.6666667"
       inkscape:isstock="true"
       inkscape:collect="always"
       preserveAspectRatio="xMidYMid"><path
         transform="scale(0.5)"
         style="fill:context-stroke;fill-rule:evenodd;stroke:context-stroke;stroke-width:1pt"
         d="M 5,0 C 5,2.76 2.76,5 0,5 -2.76,5 -5,2.76 -5,0 c 0,-2.76 2.3,-5 5,-5 2.76,0 5,2.24 5,5 z"
         id="Dot1"
         sodipodi:nodetypes="sssss" /></marker><marker
       style="overflow:visible"
       id="TriangleStart"
       refX="0"
       refY="0"
       orient="auto-start-reverse"
       inkscape:stockid="TriangleStart"
       markerWidth="3.3333333"
       markerHeight="4"
       viewBox="0 0 5.3244081 6.1553851"
       inkscape:isstock="true"
       inkscape:collect="always"
       preserveAspectRatio="xMidYMid"><path
         transform="scale(0.5)"
         style="fill:context-stroke;fill-rule:evenodd;stroke:context-stroke;stroke-width:1pt"
         d="M 5.77,0 -2.88,5 V -5 Z"
         id="path135" /></marker></defs><sodipodi:namedview
     id="namedview274"
     pagecolor="#ffffff"
     bordercolor="#000000"
     borderopacity="0.25"
     inkscape:showpageshadow="2"
     inkscape:pageopacity="0.0"
     inkscape:pagecheckerboard="0"
     inkscape:deskcolor="#d1d1d1"
     showgrid="false"
     inkscape:zoom="5"
     inkscape:cx="12.5"
     inkscape:cy="26.7"
     inkscape:window-width="1390"
     inkscape:window-height="1205"
     inkscape:window-x="660"
     inkscape:window-y="121"
     inkscape:window-maximized="0"
     inkscape:current-layer="svg272" /><g
     aria-label="}"
     transform="matrix(0,-1.7577816,2.3396076,0,-15.945901,29.703296)"
     id="text1716"
     style="font-stretch:condensed;font-size:7.56197px;font-family:Impact;-inkscape-font-specification:'Impact, Condensed';text-align:center;text-anchor:middle;stroke-width:0.246556;stroke-dasharray:none" /><path
     style="fill:none;stroke:#000000;stroke-width:1.04203;stroke-dasharray:none;stroke-opacity:1;marker-start:url(#Dot);marker-end:url(#TriangleStart)"
     d="M 2.8289372,17.8 H 4.5255429 6.2221486 16.401783"
     id="path2948"
     sodipodi:nodetypes="cccc" /><g
     aria-label="abc"
     transform="scale(0.8210614,1.2179357)"
     id="text1702"
     style="font-stretch:condensed;font-size:13.3333px;font-family:Impact;-inkscape-font-specification:'Impact, Condensed';text-align:center;text-anchor:middle;stroke-width:2.09181"><path
       d="m 8.4410483,10.37884 v 0.48828 q -0.7486961,-0.03255 -1.3281217,-0.03255 -0.5468736,0 -1.0611952,0.03255 l -0.058594,-0.07161 0.058594,-0.852862 q -0.2343744,0.149739 -1.3802049,1.028643 -0.292968,0.0651 -0.5598944,0.0651 -0.7096336,0 -1.1132784,-0.416665 -0.3971344,-0.416666 -0.3971344,-1.1979141 0,-0.5273424 0.1757808,-0.8658832 Q 2.9592913,8.2173869 3.1611137,8.0611373 3.3694465,7.8983773 3.7991329,7.7486381 4.8277761,7.3840557 6.0517314,7.1757229 6.0647522,6.4009852 5.7327218,5.9973404 5.394181,5.5936956 4.7040785,5.5936956 q -0.2799472,0 -0.5338528,0.071614 -0.1106768,0.032552 -0.260416,0.130208 L 3.6363729,6.4530684 3.1936657,6.3554124 3.2327281,5.5155708 Q 3.7144977,5.1900508 4.1506945,4.949166 4.5868913,4.7082812 4.7626721,4.656198 q 0.2408848,-0.071614 0.6770817,-0.071614 0.7096336,0 1.1653616,0.2083328 0.4622384,0.2018224 0.6770816,0.4817696 0.2213536,0.2799472 0.2994784,0.5989568 0.084635,0.3190096 0.084635,0.8072897 0,0.2083328 -0.032552,1.0872368 -0.019531,0.585936 -0.019531,0.9570288 0,1.1588513 0.065104,1.4062469 0.026042,0.117187 0.1041664,0.156249 0.1041664,0.05208 0.6575505,0.09115 z M 6.0517314,7.7225965 q -0.553384,0.1171872 -1.0156225,0.2864576 -0.455728,0.16276 -0.6315088,0.4101552 -0.1757808,0.2408848 -0.1757808,0.6119776 0,0.4166656 0.2083328,0.6445297 0.2148432,0.227864 0.5598944,0.227864 0.292968,0 0.5859361,-0.1692704 Q 5.882461,9.5650397 6.0517314,9.3046237 Z"
       style="font-weight:bold;font-stretch:normal;font-family:Palatino;-inkscape-font-specification:'Palatino Bold'"
       id="path112555" /><path
       d="M 8.9814115,2.3189643 V 1.8502155 q 1.4778605,-0.1562496 2.5065045,-0.5729152 0.09766,0.026042 0.17578,0.091146 -0.0651,2.7018161 -0.0651,3.1315025 v 1.2239552 l 0.787759,-0.65104 q 0.345051,-0.2799472 0.624998,-0.3841136 0.286458,-0.1041664 0.722655,-0.1041664 1.113278,0 1.79036,0.6901024 0.677081,0.6901024 0.677081,1.8554641 0,0.7031232 -0.247395,1.367184 -0.247395,0.6575504 -0.664061,1.0807264 -0.05859,0.058594 -0.950518,0.6770815 -0.885415,0.618488 -0.996091,0.670571 -0.377604,0.169271 -0.97005,0.169271 -0.397134,0 -0.774738,-0.123698 -0.377603,-0.117187 -0.852862,-0.403645 l -0.572915,0.48177 -0.2994787,-0.110677 q 0.1302077,-1.9856719 0.1302077,-4.752592 0,-2.7343681 -0.078124,-3.4635329 Q 9.8928675,2.4817243 9.8147427,2.4231307 9.7105763,2.3515163 8.9814115,2.3189643 Z m 2.6171805,4.1015521 q -0.01302,0.5013009 -0.01302,1.3281217 0,1.106768 0.01302,1.7057248 0.240885,0.3450513 0.520832,0.5013009 0.384114,0.2083332 0.826821,0.2083332 0.475259,0 0.826821,-0.2473956 0.358072,-0.2539057 0.553384,-0.8203105 0.201822,-0.5664048 0.201822,-1.2499968 0,-1.0156224 -0.462238,-1.5494753 -0.462238,-0.5338528 -1.158851,-0.5338528 -0.436197,0 -0.787759,0.2018224 -0.345051,0.2018224 -0.520832,0.455728 z"
       style="font-weight:bold;font-stretch:normal;font-family:Palatino;-inkscape-font-specification:'Palatino Bold'"
       id="path112557" /><path
       d="m 22.497002,10.007747 -0.286458,0.631509 q -0.559894,0.279947 -0.911456,0.364582 -0.345051,0.09115 -0.833331,0.09115 -1.067706,0 -1.731766,-0.416666 -0.664061,-0.416665 -1.009112,-1.1914031 -0.247396,-0.5468736 -0.247396,-1.4583296 0,-0.683592 0.130208,-1.1197888 0.130208,-0.4361969 0.371093,-0.7682273 0.16276,-0.2213536 0.436197,-0.4166656 l 1.002602,-0.6315088 q 0.507811,-0.32552 0.696612,-0.390624 0.3125,-0.1171872 0.8138,-0.1171872 0.416666,0 0.774738,0.071614 0.364582,0.065104 0.670571,0.2018224 l 0.0651,0.1106768 -0.16276,1.0611952 q -0.01953,0.1432288 -0.0651,0.8984353 H 21.702733 Q 21.663671,6.348902 21.605077,6.0689548 21.468359,5.8476012 21.181901,5.7108828 20.895443,5.567654 20.478778,5.567654 q -0.494791,0 -0.787759,0.1822912 -0.292968,0.1822912 -0.429686,0.6119776 -0.136718,0.4296865 -0.136718,1.0416641 0,0.8203104 0.279947,1.4713504 0.279947,0.6445296 0.735675,0.9505185 0.462238,0.2994782 1.13281,0.2994782 0.305988,0 0.579425,-0.0651 0.273437,-0.071614 0.520832,-0.2018222 z"
       style="font-weight:bold;font-stretch:normal;font-family:Palatino;-inkscape-font-specification:'Palatino Bold'"
       id="path112559" /></g><g
     aria-label="}"
     transform="matrix(0,-1.7577816,2.3396076,0,-14.414236,57.638839)"
     id="text1716-9"
     style="font-stretch:condensed;font-size:7.56197px;font-family:Impact;-inkscape-font-specification:'Impact, Condensed';text-align:center;text-anchor:middle;stroke-width:0.246556;stroke-dasharray:none" /></svg>
