<?xml version="1.0" encoding="UTF-8" standalone="no"?>
<svg
   inkscape:version="1.2.2 (b0a84865, 2022-12-01)"
   sodipodi:docname="domain-sports-entertainment.svg"
   id="svg272"
   version="1.1"
   height="20"
   width="20"
   xml:space="preserve"
   xmlns:inkscape="http://www.inkscape.org/namespaces/inkscape"
   xmlns:sodipodi="http://sodipodi.sourceforge.net/DTD/sodipodi-0.dtd"
   xmlns="http://www.w3.org/2000/svg"
   xmlns:svg="http://www.w3.org/2000/svg"><defs
     id="defs276"><marker
       style="overflow:visible"
       id="TriangleStart"
       refX="0"
       refY="0"
       orient="auto-start-reverse"
       inkscape:stockid="TriangleStart"
       markerWidth="3.5"
       markerHeight="7"
       viewBox="0 0 5.3244081 6.1553851"
       inkscape:isstock="true"
       inkscape:collect="always"
       preserveAspectRatio="xMidYMid"><path
         transform="scale(0.5)"
         style="fill:context-stroke;fill-rule:evenodd;stroke:context-stroke;stroke-width:1pt"
         d="M 5.77,0 -2.88,5 V -5 Z"
         id="path135" /></marker></defs><sodipodi:namedview
     id="namedview274"
     pagecolor="#ffffff"
     bordercolor="#000000"
     borderopacity="0.25"
     inkscape:showpageshadow="2"
     inkscape:pageopacity="0.0"
     inkscape:pagecheckerboard="0"
     inkscape:deskcolor="#d1d1d1"
     showgrid="false"
     inkscape:zoom="15"
     inkscape:cx="7.4"
     inkscape:cy="3.4333333"
     inkscape:window-width="1390"
     inkscape:window-height="1205"
     inkscape:window-x="668"
     inkscape:window-y="122"
     inkscape:window-maximized="0"
     inkscape:current-layer="svg272" /><path
     id="path1458"
     style="fill:#000000;stroke:#000000;stroke-width:0.33243;stroke-dasharray:none;stroke-opacity:1"
     d="M 9.4311577,13.838835 C 5.9649784,13.601123 2.9863578,10.245853 3.3309505,6.754269 3.5095456,4.0668202 5.3754836,1.4796308 8.0180564,0.75705258 10.105626,0.1858482 12.521723,0.55826493 14.161441,2.0332903 16.209247,3.7811185 17.13675,6.7591534 16.310202,9.3405327 15.503366,11.928916 12.931218,13.832385 10.220814,13.86162 9.9575117,13.86542 9.6937327,13.85622 9.4311577,13.83883 Z m 1.6694563,-0.315582 c 0.827646,-0.159188 -0.462485,-0.329688 -0.744008,-0.332134 -0.6008613,-0.04371 -1.2152703,0.0086 -1.7861637,0.208845 0.7912464,0.356295 1.6992387,0.245055 2.5301717,0.123289 z M 8.6256418,13.079783 C 9.0027111,12.460489 8.5482404,11.533421 7.9175022,11.262323 7.2141379,10.928737 6.7374018,9.9204655 5.8733535,10.076321 c -0.6352851,0.09232 -1.1245016,0.386983 -0.829192,1.08526 0.1663749,0.550354 0.7207617,0.852345 1.1291152,1.213986 0.6517999,0.440808 1.4111724,0.97652 2.2397452,0.764457 l 0.1074514,-0.02656 0.1051676,-0.03368 z m 3.8417282,0.0184 c 1.292521,-0.568074 2.527476,-1.499019 3.10953,-2.816897 -0.116217,-0.7581595 -0.967964,0.147983 -1.325947,0.353408 -0.537039,0.446653 -1.188243,0.743492 -1.686976,1.231753 -0.235772,0.350765 -1.305547,1.249456 -0.398413,1.298296 0.103034,-0.0086 0.204257,-0.03288 0.301806,-0.06656 z m 0.788035,-2.021381 C 13.905974,10.535982 14.953503,10.19428 15.058082,9.2306332 15.150247,8.4852476 15.443915,7.5669081 14.496217,7.2810873 13.782059,6.7791445 12.85311,6.2897999 12.14084,7.0865466 c -0.738453,0.3946555 -1.12209,1.0365657 -1.111107,1.8721401 -0.07742,0.7069603 -0.537488,1.6370003 0.420295,1.8962603 0.553318,0.293443 1.245669,0.774661 1.805377,0.221857 z M 9.0870527,11.17801 C 9.6980397,10.960432 10.566642,10.740888 10.630474,9.9632823 10.774797,9.2690752 10.863794,8.5650402 10.949263,7.8616386 10.338439,7.3597316 9.7089657,6.5152064 8.8465811,6.6051436 8.1840279,6.8728214 7.4834505,7.1579803 6.9261149,7.5995299 6.5245973,8.225512 6.358964,9.094157 6.611403,9.8047555 c 0.43594,0.6762205 1.1929328,1.1836335 1.9554619,1.4247715 0.1739561,0.02802 0.3554259,0.01204 0.5201878,-0.05152 z M 4.6569897,10.247366 C 4.2276363,9.4510104 3.9317003,8.5797535 3.8132464,7.6817669 c -0.4810135,0.4747941 0.068009,1.3092327 0.201527,1.8767274 0.1879845,0.3805509 0.5011334,1.1309247 0.7212829,1.2241647 0.04652,-0.17886 0.047011,-0.386765 -0.079067,-0.535293 z M 4.4720573,6.7023586 C 5.0109299,6.2599451 5.1602193,5.6113979 5.3202095,4.9696122 5.5081069,4.37688 5.7529569,3.8018043 6.0559481,3.2586517 6.0691927,2.5358896 5.138162,2.5427007 4.9846485,3.1953459 4.1518488,4.3311046 3.52819,5.7180403 3.6040819,7.1480569 3.9043793,7.8117839 4.2223067,6.870568 4.4720573,6.7023586 Z M 15.388619,7.367564 C 15.854539,6.817237 16.348891,6.1043127 16.041786,5.3533779 15.752008,4.2413488 15.151698,3.1413101 14.196863,2.4762211 13.746942,2.0657296 13.229845,2.2462419 13.034721,2.8087883 c -0.721935,0.6195324 -0.525352,1.5301169 -0.200398,2.2952636 0.127878,0.9495819 0.802531,1.5723439 1.656425,1.9223505 0.280469,0.085726 0.60434,0.4178261 0.897871,0.3411616 z M 7.3734795,7.0529027 C 7.9400503,6.6337579 8.9148953,6.5171513 9.1199797,5.7938089 9.2517217,5.0576922 9.9280427,4.2916872 9.4482017,3.5614044 8.9965399,3.0936048 8.6058753,2.0649717 7.8049329,2.3548801 7.0529626,2.6272357 6.3441286,3.1124837 6.0233925,3.8727414 5.7940745,4.4982025 5.3986005,5.1705037 5.4546227,5.8289894 5.7415899,6.3552424 6.1866284,6.8046322 6.6688144,7.154575 6.89601,7.2935767 7.1883512,7.2351576 7.3734795,7.0529027 Z M 11.363476,3.6096558 c 0.786198,0.1444234 1.291139,-0.4227967 1.5879,-1.0826787 C 13.513347,1.8193073 12.556779,1.2545459 11.961785,1.064067 11.197753,0.80716618 10.327161,0.61813986 9.5397817,0.8198547 8.8128209,1.1389792 8.162534,2.1346546 9.0193602,2.7065976 c 0.4505465,0.436452 0.7967655,1.1873727 1.5341858,0.9556943 0.270239,-0.013255 0.540066,-0.033537 0.80993,-0.052636 z" /><g
     aria-label="}"
     transform="matrix(0,-1.7577816,2.3396076,0,-35.195125,10.739628)"
     id="text1716"
     style="font-stretch:condensed;font-size:7.56197px;font-family:Impact;-inkscape-font-specification:'Impact, Condensed';text-align:center;text-anchor:middle;stroke-width:0.246556;stroke-dasharray:none" /><path
     style="fill:none;stroke:#000000;stroke-width:1;stroke-dasharray:none;stroke-opacity:1;marker-end:url(#TriangleStart)"
     d="M 10.154872,19.916996 V 19.542878 19.168762 16.92406"
     id="path2948"
     sodipodi:nodetypes="cccc" /><g
     aria-label="}"
     transform="matrix(0,-1.7577816,2.3396076,0,-33.66346,38.675171)"
     id="text1716-9"
     style="font-stretch:condensed;font-size:7.56197px;font-family:Impact;-inkscape-font-specification:'Impact, Condensed';text-align:center;text-anchor:middle;stroke-width:0.246556;stroke-dasharray:none" /><g
     aria-label="}"
     transform="matrix(0,-1.7577816,2.3396076,0,-32.195125,40.691887)"
     id="text1716-0"
     style="font-stretch:condensed;font-size:7.56197px;font-family:Impact;-inkscape-font-specification:'Impact, Condensed';text-align:center;text-anchor:middle;stroke-width:0.246556;stroke-dasharray:none" /><path
     style="fill:none;stroke:#000000;stroke-width:1;stroke-dasharray:none;stroke-opacity:1;marker-end:url(#TriangleStart)"
     d="M 4.8548723,19.916996 V 19.542878 19.168762 16.92406"
     id="path16074"
     sodipodi:nodetypes="cccc" /><path
     style="fill:none;stroke:#000000;stroke-width:1;stroke-dasharray:none;stroke-opacity:1;marker-end:url(#TriangleStart)"
     d="M 15.245662,19.847259 V 19.473141 19.099025 16.854323"
     id="path16086"
     sodipodi:nodetypes="cccc" /></svg>
