<?xml version="1.0" encoding="UTF-8" standalone="no"?>
<svg
   inkscape:version="1.2.2 (b0a84865, 2022-12-01)"
   sodipodi:docname="domain-ml-ai.svg"
   id="svg272"
   version="1.1"
   height="20"
   width="20"
   xml:space="preserve"
   xmlns:inkscape="http://www.inkscape.org/namespaces/inkscape"
   xmlns:sodipodi="http://sodipodi.sourceforge.net/DTD/sodipodi-0.dtd"
   xmlns="http://www.w3.org/2000/svg"
   xmlns:svg="http://www.w3.org/2000/svg"><defs
     id="defs276"><marker
   style="overflow:visible"
   id="TriangleStart"
   refX="0"
   refY="0"
   orient="auto-start-reverse"
   inkscape:stockid="TriangleStart"
   markerWidth="3.5"
   markerHeight="7"
   viewBox="0 0 5.3244081 6.1553851"
   inkscape:isstock="true"
   inkscape:collect="always"
   preserveAspectRatio="xMidYMid"><path
     transform="scale(0.5)"
     style="fill:context-stroke;fill-rule:evenodd;stroke:context-stroke;stroke-width:1pt"
     d="M 5.77,0 -2.88,5 V -5 Z"
     id="path135" /></marker>
	
	
	
	
	
	
	
	
	
	
	
	
	
	
	
	
	
	
	
	
	
	
	
	
	
</defs><sodipodi:namedview
     id="namedview274"
     pagecolor="#ffffff"
     bordercolor="#000000"
     borderopacity="0.25"
     inkscape:showpageshadow="2"
     inkscape:pageopacity="0.0"
     inkscape:pagecheckerboard="0"
     inkscape:deskcolor="#d1d1d1"
     showgrid="false"
     inkscape:zoom="15"
     inkscape:cx="7.6333333"
     inkscape:cy="6.1"
     inkscape:window-width="1390"
     inkscape:window-height="1177"
     inkscape:window-x="665"
     inkscape:window-y="122"
     inkscape:window-maximized="0"
     inkscape:current-layer="svg272" /><path
     style="fill:none;stroke:#000000;stroke-width:1;stroke-dasharray:none;stroke-opacity:1;marker-end:url(#TriangleStart)"
     d="M 10.154872,19.916996 V 19.542878 19.168762 16.92406"
     id="path2948"
     sodipodi:nodetypes="cccc" /><path
     style="fill:none;stroke:#000000;stroke-width:1;stroke-dasharray:none;stroke-opacity:1;marker-end:url(#TriangleStart)"
     d="M 4.8548723,19.916996 V 19.542878 19.168762 16.92406"
     id="path16074"
     sodipodi:nodetypes="cccc" /><path
     style="fill:none;stroke:#000000;stroke-width:1;stroke-dasharray:none;stroke-opacity:1;marker-end:url(#TriangleStart)"
     d="M 15.245662,19.847259 V 19.473141 19.099025 16.854323"
     id="path16086"
     sodipodi:nodetypes="cccc" /><path
     unicode=""
     d="m 10.139314,0.26666667 q 0.40279,0 0.90323,0.061 l 0.46382,1.85527003 0.061,0.0122 q 0.59808,0.17088 1.14734,0.47602 l 0.061,0.0244 1.63557,-0.97647 q 0.74455,0.58588 1.2694,1.28161 l -0.97647,1.63557 0.0366,0.061 q 0.30515,0.53705 0.47603,1.13513 l 0.0122,0.0732 1.85528,0.46382 q 0.061,0.52484 0.061,0.89102 0,0.41499 -0.061,0.90322 l -1.85528,0.46382 -0.0122,0.0732 q -0.18309,0.59808 -0.47603,1.13513 l -0.0366,0.061 0.97647,1.6355703 q -0.58588,0.74455 -1.2694,1.28161 l -1.63557,-0.98867 -0.061,0.0366 q -0.53706,0.30514 -1.14734,0.47602 l -0.061,0.0244 -0.46382,1.84307 q -0.52485,0.061 -0.90323,0.061 -0.4027906,0 -0.9032206,-0.061 l -0.46382,-1.84307 -0.061,-0.0244 q -0.59808,-0.17088 -1.14734,-0.47602 l -0.061,-0.0366 -1.63557,0.98867 q -0.73235,-0.58588 -1.2694,-1.28161 l 0.97646,-1.6355703 -0.0366,-0.061 q -0.30514,-0.54926 -0.46382,-1.13513 l -0.0244,-0.0732 -1.84307,-0.46382 q -0.0732,-0.51264 -0.0732,-0.90322 0,-0.40279 0.0732,-0.89102 l 1.84307,-0.46382 0.0244,-0.0732 q 0.15868,-0.58587 0.46382,-1.13513 l 0.0366,-0.061 -0.97646,-1.63557 q 0.57367,-0.74455 1.2816,-1.28161 l 1.62337,0.97647 0.061,-0.0244 q 0.54926,-0.30514 1.14734,-0.47602 l 0.061,-0.0122 0.46382,-1.85527003 q 0.52484,-0.061 0.9032206,-0.061 z m 0,4.38187003 q -1.0863106,0 -1.8552706,0.76896 -0.76896,0.76896 -0.76896,1.84917 0,1.08021 0.76896,1.84917 0.76896,0.76896 1.8552706,0.76896 1.08632,0 1.85528,-0.76896 0.76896,-0.76896 0.76896,-1.84917 0,-1.08021 -0.76896,-1.84917 -0.76896,-0.76896 -1.85528,-0.76896 z"
     id="path54194"
     style="stroke-width:0.0122058" /></svg>
