<?xml version="1.0" encoding="UTF-8" standalone="no"?>
<svg
   inkscape:version="1.2.2 (b0a84865, 2022-12-01)"
   sodipodi:docname="domain-agnostic.svg"
   id="svg272"
   version="1.1"
   height="20"
   width="20"
   xml:space="preserve"
   xmlns:inkscape="http://www.inkscape.org/namespaces/inkscape"
   xmlns:sodipodi="http://sodipodi.sourceforge.net/DTD/sodipodi-0.dtd"
   xmlns="http://www.w3.org/2000/svg"
   xmlns:svg="http://www.w3.org/2000/svg"><defs
     id="defs276"><marker
       style="overflow:visible"
       id="TriangleStart"
       refX="0"
       refY="0"
       orient="auto-start-reverse"
       inkscape:stockid="TriangleStart"
       markerWidth="3.5"
       markerHeight="7"
       viewBox="0 0 5.3244081 6.1553851"
       inkscape:isstock="true"
       inkscape:collect="always"
       preserveAspectRatio="xMidYMid"><path
         transform="scale(0.5)"
         style="fill:context-stroke;fill-rule:evenodd;stroke:context-stroke;stroke-width:1pt"
         d="M 5.77,0 -2.88,5 V -5 Z"
         id="path135" /></marker></defs><sodipodi:namedview
     id="namedview274"
     pagecolor="#ffffff"
     bordercolor="#000000"
     borderopacity="0.25"
     inkscape:showpageshadow="2"
     inkscape:pageopacity="0.0"
     inkscape:pagecheckerboard="0"
     inkscape:deskcolor="#d1d1d1"
     showgrid="false"
     inkscape:zoom="15"
     inkscape:cx="7.4333333"
     inkscape:cy="3.5666667"
     inkscape:window-width="1390"
     inkscape:window-height="1205"
     inkscape:window-x="660"
     inkscape:window-y="121"
     inkscape:window-maximized="0"
     inkscape:current-layer="svg272" /><g
     aria-label="}"
     transform="matrix(0,-1.7577816,2.3396076,0,-35.195125,10.739628)"
     id="text1716"
     style="font-stretch:condensed;font-size:7.56197px;font-family:Impact;-inkscape-font-specification:'Impact, Condensed';text-align:center;text-anchor:middle;stroke-width:0.246556;stroke-dasharray:none" /><path
     style="fill:none;stroke:#000000;stroke-width:1;stroke-dasharray:none;stroke-opacity:1;marker-end:url(#TriangleStart)"
     d="M 10.154872,19.916996 V 19.542878 19.168762 16.92406"
     id="path2948"
     sodipodi:nodetypes="cccc" /><g
     aria-label="}"
     transform="matrix(0,-1.7577816,2.3396076,0,-33.66346,38.675171)"
     id="text1716-9"
     style="font-stretch:condensed;font-size:7.56197px;font-family:Impact;-inkscape-font-specification:'Impact, Condensed';text-align:center;text-anchor:middle;stroke-width:0.246556;stroke-dasharray:none" /><g
     aria-label="}"
     transform="matrix(0,-1.7577816,2.3396076,0,-32.195125,40.691887)"
     id="text1716-0"
     style="font-stretch:condensed;font-size:7.56197px;font-family:Impact;-inkscape-font-specification:'Impact, Condensed';text-align:center;text-anchor:middle;stroke-width:0.246556;stroke-dasharray:none" /><path
     style="fill:none;stroke:#000000;stroke-width:1;stroke-dasharray:none;stroke-opacity:1;marker-end:url(#TriangleStart)"
     d="M 4.8548723,19.916996 V 19.542878 19.168762 16.92406"
     id="path16074"
     sodipodi:nodetypes="cccc" /><path
     style="fill:none;stroke:#000000;stroke-width:1;stroke-dasharray:none;stroke-opacity:1;marker-end:url(#TriangleStart)"
     d="M 15.245662,19.847259 V 19.473141 19.099025 16.854323"
     id="path16086"
     sodipodi:nodetypes="cccc" /><g
     aria-label="Agn"
     transform="scale(1.0581798,0.94501899)"
     id="text607"
     style="font-style:italic;font-weight:bold;font-size:10.4399px;font-family:Palatino;-inkscape-font-specification:'Palatino, Bold Italic';text-align:center;text-anchor:middle;stroke-width:1.35366"><path
       d="M 5.6353492,2.2048838 6.8638726,10.457911 H 4.6668037 L 4.559754,8.9745067 H 3.7900152 L 3.662575,10.457911 H 1.4400181 L 2.5309061,2.2048838 Z M 4.4985827,7.5114933 Q 4.3354592,6.1096512 4.1723358,4.0502178 3.8460889,6.4155077 3.7645272,7.5114933 Z"
       style="font-style:normal;font-weight:normal;font-stretch:condensed;font-family:Impact;-inkscape-font-specification:'Impact Condensed'"
       id="path114582" /><path
       d="m 11.849333,3.6933852 v 5.209755 q 0,1.0552048 -0.05098,1.3661588 -0.04588,0.305857 -0.34154,0.647396 -0.295661,0.346638 -0.825813,0.525054 -0.525053,0.183514 -1.3253775,0.183514 -0.9838383,0 -1.5802583,-0.336442 Q 7.1289481,10.957476 7.1085576,9.9787354 h 1.9982622 q 0,0.4485896 0.3262469,0.4485896 0.23449,0 0.3109541,-0.137636 0.076464,-0.137635 0.076464,-0.5760292 V 9.2038991 Q 9.5554093,9.4434866 9.259748,9.5658292 8.9691844,9.6881718 8.6480351,9.6881718 q -0.5556392,0 -0.9175693,-0.2242947 Q 7.3736332,9.2395823 7.2410954,8.8776522 7.1085576,8.5106244 7.1085576,7.8377402 V 5.3806934 q 0,-0.9634479 0.3466373,-1.3865493 0.3466374,-0.4231015 1.0552048,-0.4231015 0.3874182,0 0.7034699,0.1580259 0.3211493,0.1580258 0.570932,0.4740775 L 9.9326322,3.6933852 Z M 9.7848016,5.4877431 q 0,-0.4638823 -0.056074,-0.5913225 -0.050976,-0.1274402 -0.2344899,-0.1274402 -0.1784163,0 -0.2548804,0.1478307 -0.071366,0.142733 -0.071366,0.570932 v 2.273533 q 0,0.4536871 0.056074,0.5913225 0.056074,0.1325378 0.2344899,0.1325378 0.2039043,0 0.2650756,-0.1631235 0.061171,-0.1631234 0.061171,-0.7391531 z"
       style="font-style:normal;font-weight:normal;font-stretch:condensed;font-family:Impact;-inkscape-font-specification:'Impact Condensed'"
       id="path114584" /><path
       d="m 14.678505,3.6933852 -0.03568,0.6219082 q 0.224295,-0.3721254 0.545445,-0.5556393 0.326246,-0.1886115 0.749348,-0.1886115 0.530151,0 0.866593,0.2497828 0.336442,0.2497828 0.433297,0.6321034 0.09685,0.3772229 0.09685,1.2642067 V 10.457911 H 15.274925 V 5.7732091 q 0,-0.6983722 -0.04588,-0.8513004 -0.04588,-0.1529283 -0.25488,-0.1529283 -0.219197,0 -0.275271,0.1784163 -0.05607,0.1733187 -0.05607,0.9379598 V 10.457911 H 12.583388 V 3.6933852 Z"
       style="font-style:normal;font-weight:normal;font-stretch:condensed;font-family:Impact;-inkscape-font-specification:'Impact Condensed'"
       id="path114586" /></g><g
     aria-label="}"
     transform="matrix(0,-1.7577816,2.3396076,0,-36.935521,19.286306)"
     id="text1716-3"
     style="font-stretch:condensed;font-size:7.56197px;font-family:Impact;-inkscape-font-specification:'Impact, Condensed';text-align:center;text-anchor:middle;stroke-width:0.246556;stroke-dasharray:none" /></svg>
