<?xml version="1.0" encoding="UTF-8" standalone="no"?>
<svg
   inkscape:version="1.2.2 (b0a84865, 2022-12-01)"
   sodipodi:docname="domain-business-management.svg"
   id="svg272"
   version="1.1"
   height="20"
   width="20"
   xml:space="preserve"
   xmlns:inkscape="http://www.inkscape.org/namespaces/inkscape"
   xmlns:sodipodi="http://sodipodi.sourceforge.net/DTD/sodipodi-0.dtd"
   xmlns="http://www.w3.org/2000/svg"
   xmlns:svg="http://www.w3.org/2000/svg"><defs
     id="defs276"><marker
       style="overflow:visible"
       id="TriangleStart"
       refX="0"
       refY="0"
       orient="auto-start-reverse"
       inkscape:stockid="TriangleStart"
       markerWidth="3.5"
       markerHeight="7"
       viewBox="0 0 5.3244081 6.1553851"
       inkscape:isstock="true"
       inkscape:collect="always"
       preserveAspectRatio="xMidYMid"><path
         transform="scale(0.5)"
         style="fill:context-stroke;fill-rule:evenodd;stroke:context-stroke;stroke-width:1pt"
         d="M 5.77,0 -2.88,5 V -5 Z"
         id="path135" /></marker></defs><sodipodi:namedview
     id="namedview274"
     pagecolor="#ffffff"
     bordercolor="#000000"
     borderopacity="0.25"
     inkscape:showpageshadow="2"
     inkscape:pageopacity="0.0"
     inkscape:pagecheckerboard="0"
     inkscape:deskcolor="#d1d1d1"
     showgrid="false"
     inkscape:zoom="15"
     inkscape:cx="7.3666667"
     inkscape:cy="3.5666667"
     inkscape:window-width="1390"
     inkscape:window-height="1177"
     inkscape:window-x="667"
     inkscape:window-y="122"
     inkscape:window-maximized="0"
     inkscape:current-layer="svg272" /><g
     aria-label="}"
     transform="matrix(0,-1.7577816,2.3396076,0,-35.195125,10.739628)"
     id="text1716"
     style="font-stretch:condensed;font-size:7.56197px;font-family:Impact;-inkscape-font-specification:'Impact, Condensed';text-align:center;text-anchor:middle;stroke-width:0.246556;stroke-dasharray:none" /><path
     style="fill:none;stroke:#000000;stroke-width:1;stroke-dasharray:none;stroke-opacity:1;marker-end:url(#TriangleStart)"
     d="M 10.154872,19.916996 V 19.542878 19.168762 16.92406"
     id="path2948"
     sodipodi:nodetypes="cccc" /><g
     aria-label="}"
     transform="matrix(0,-1.7577816,2.3396076,0,-33.66346,38.675171)"
     id="text1716-9"
     style="font-stretch:condensed;font-size:7.56197px;font-family:Impact;-inkscape-font-specification:'Impact, Condensed';text-align:center;text-anchor:middle;stroke-width:0.246556;stroke-dasharray:none" /><g
     aria-label="}"
     transform="matrix(0,-1.7577816,2.3396076,0,-32.195125,40.691887)"
     id="text1716-0"
     style="font-stretch:condensed;font-size:7.56197px;font-family:Impact;-inkscape-font-specification:'Impact, Condensed';text-align:center;text-anchor:middle;stroke-width:0.246556;stroke-dasharray:none" /><path
     style="fill:none;stroke:#000000;stroke-width:1;stroke-dasharray:none;stroke-opacity:1;marker-end:url(#TriangleStart)"
     d="M 4.8548723,19.916996 V 19.542878 19.168762 16.92406"
     id="path16074"
     sodipodi:nodetypes="cccc" /><path
     style="fill:none;stroke:#000000;stroke-width:1;stroke-dasharray:none;stroke-opacity:1;marker-end:url(#TriangleStart)"
     d="M 15.245662,19.847259 V 19.473141 19.099025 16.854323"
     id="path16086"
     sodipodi:nodetypes="cccc" /><g
     aria-label="}"
     transform="matrix(0,-1.7577816,2.3396076,0,-36.935521,19.286306)"
     id="text1716-3"
     style="font-stretch:condensed;font-size:7.56197px;font-family:Impact;-inkscape-font-specification:'Impact, Condensed';text-align:center;text-anchor:middle;stroke-width:0.246556;stroke-dasharray:none" /><path
     unicode=""
     d="m 8.7484906,0.80000003 h 2.3575654 q 0.483308,0 0.831046,0.34773767 0.347752,0.3477518 0.347752,0.8310454 v 1.1787971 h 3.536363 q 0.483294,0 0.831045,0.3477377 Q 17,3.8530555 17,4.3363632 V 9.0515095 H 11.106056 V 7.8727265 H 8.7484906 v 1.178783 H 2.8545472 V 4.3363632 q 0,-0.4833077 0.3477377,-0.8310453 Q 3.5500367,3.1575802 4.0333302,3.1575802 H 7.5696935 V 1.9787831 q 0,-0.4832936 0.3477518,-0.8310454 Q 8.265183,0.80000003 8.7484906,0.80000003 Z m 0,1.17878307 V 3.1575802 H 11.106056 V 1.9787831 Z M 17,10.230307 v 2.357566 q 0,0.483308 -0.347738,0.831045 -0.347751,0.347752 -0.831045,0.347752 H 4.0333302 q -0.4832935,0 -0.8310453,-0.347752 -0.3477377,-0.347737 -0.3477377,-0.831045 v -2.357566 z"
     id="path34833"
     style="stroke-width:0.0117879" /></svg>
