<?xml version="1.0" encoding="UTF-8" standalone="no"?>
<svg
   inkscape:version="1.2.2 (b0a84865, 2022-12-01)"
   sodipodi:docname="domain-life-sciences.svg"
   id="svg272"
   version="1.1"
   height="20"
   width="20"
   xml:space="preserve"
   xmlns:inkscape="http://www.inkscape.org/namespaces/inkscape"
   xmlns:sodipodi="http://sodipodi.sourceforge.net/DTD/sodipodi-0.dtd"
   xmlns="http://www.w3.org/2000/svg"
   xmlns:svg="http://www.w3.org/2000/svg"><defs
     id="defs276"><marker
   style="overflow:visible"
   id="TriangleStart"
   refX="0"
   refY="0"
   orient="auto-start-reverse"
   inkscape:stockid="TriangleStart"
   markerWidth="3.5"
   markerHeight="7"
   viewBox="0 0 5.3244081 6.1553851"
   inkscape:isstock="true"
   inkscape:collect="always"
   preserveAspectRatio="xMidYMid"><path
     transform="scale(0.5)"
     style="fill:context-stroke;fill-rule:evenodd;stroke:context-stroke;stroke-width:1pt"
     d="M 5.77,0 -2.88,5 V -5 Z"
     id="path135" /></marker>
	
	
	
	
	
	
	
	
	
	
	
	
	
	
	
	
	
	
	
	
	
	
	
	
	
</defs><sodipodi:namedview
     id="namedview274"
     pagecolor="#ffffff"
     bordercolor="#000000"
     borderopacity="0.25"
     inkscape:showpageshadow="2"
     inkscape:pageopacity="0.0"
     inkscape:pagecheckerboard="0"
     inkscape:deskcolor="#d1d1d1"
     showgrid="false"
     inkscape:zoom="15"
     inkscape:cx="6.3"
     inkscape:cy="3.5666667"
     inkscape:window-width="1390"
     inkscape:window-height="1177"
     inkscape:window-x="666"
     inkscape:window-y="122"
     inkscape:window-maximized="0"
     inkscape:current-layer="g46902" /><g
     aria-label="}"
     transform="matrix(0,-1.7577816,2.3396076,0,-35.195125,10.739628)"
     id="text1716"
     style="font-stretch:condensed;font-size:7.56197px;font-family:Impact;-inkscape-font-specification:'Impact, Condensed';text-align:center;text-anchor:middle;stroke-width:0.246556;stroke-dasharray:none" /><path
     style="fill:none;stroke:#000000;stroke-width:1;stroke-dasharray:none;stroke-opacity:1;marker-end:url(#TriangleStart)"
     d="M 10.154872,19.916996 V 19.542878 19.168762 16.92406"
     id="path2948"
     sodipodi:nodetypes="cccc" /><g
     aria-label="}"
     transform="matrix(0,-1.7577816,2.3396076,0,-33.66346,38.675171)"
     id="text1716-9"
     style="font-stretch:condensed;font-size:7.56197px;font-family:Impact;-inkscape-font-specification:'Impact, Condensed';text-align:center;text-anchor:middle;stroke-width:0.246556;stroke-dasharray:none" /><g
     aria-label="}"
     transform="matrix(0,-1.7577816,2.3396076,0,-32.195125,40.691887)"
     id="text1716-0"
     style="font-stretch:condensed;font-size:7.56197px;font-family:Impact;-inkscape-font-specification:'Impact, Condensed';text-align:center;text-anchor:middle;stroke-width:0.246556;stroke-dasharray:none" /><path
     style="fill:none;stroke:#000000;stroke-width:1;stroke-dasharray:none;stroke-opacity:1;marker-end:url(#TriangleStart)"
     d="M 4.8548723,19.916996 V 19.542878 19.168762 16.92406"
     id="path16074"
     sodipodi:nodetypes="cccc" /><path
     style="fill:none;stroke:#000000;stroke-width:1;stroke-dasharray:none;stroke-opacity:1;marker-end:url(#TriangleStart)"
     d="M 15.245662,19.847259 V 19.473141 19.099025 16.854323"
     id="path16086"
     sodipodi:nodetypes="cccc" /><g
     aria-label="}"
     transform="matrix(0,-1.7577816,2.3396076,0,-36.935521,19.286306)"
     id="text1716-3"
     style="font-stretch:condensed;font-size:7.56197px;font-family:Impact;-inkscape-font-specification:'Impact, Condensed';text-align:center;text-anchor:middle;stroke-width:0.246556;stroke-dasharray:none" /><g
     id="g46902"
     transform="matrix(0.0063698,1.2223144,-1.2220329,0.00694234,18.172837,-4.3817126)"><path
       d="m 9.1934875,10.313844 c -1.3291039,0.833261 -2.4524218,1.638014 -2.4546373,2.493405 -0.00105,0.405509 -1.290105,0.404174 -1.2890395,-7.39e-4 0.00282,-1.094309 1.4276848,-2.063434 2.9292247,-2.9955835 0.2693758,0.166623 0.5454826,0.3353615 0.8144521,0.5029175 z m 0,-7.2727086 C 7.8643836,2.2078827 6.7410657,1.4031216 6.7388502,0.54773028 6.7378017,0.14220545 5.4487452,0.14357253 5.4498107,0.54848619 5.452635,1.6427872 6.8774955,2.6119118 8.3790354,3.5440608 8.6487325,3.3772446 8.9247378,3.2085547 9.1934875,3.0411354 Z m 0.323613,1.2079618 c 3.1355185,1.9791491 3.1360595,2.8772577 0,4.8567767 0.267363,0.1674756 0.5395125,0.3340425 0.8144015,0.5036331 3.769806,-2.3512125 3.780444,-3.5061879 0,-5.8640428 C 10.05942,3.9133258 9.7849205,4.0813241 9.5171005,4.2490972 Z M 6.8419632,6.6778716 c 0.00529,-2.0396545 6.4131318,-3.810412 6.4191358,-6.12938541 10e-4,-0.40541224 -1.288025,-0.40567762 -1.28904,-7.5591e-4 -0.0053,2.04001632 -6.4131484,3.80976052 -6.4191353,6.13014132 0.00599,2.318893 6.4138763,4.0897874 6.4191353,6.1293774 10e-4,0.406305 1.290071,0.403547 1.28904,-7.39e-4 -0.006,-2.318628 -6.4138423,-4.090335 -6.4191358,-6.1286384 z"
       id="path43205"
       style="stroke-width:0.011662" /><path
       d="m 7.9127357,1.3936394 h 2.8846013 c 0.02451,-0.040907 0.04752,-0.081837 0.069,-0.1227997 H 7.8438307 c 0.02148,0.041019 0.04451,0.081958 0.0689,0.1227997 z"
       id="path43211"
       style="stroke:#000000;stroke-width:0.3;stroke-dasharray:none;stroke-opacity:1" /><path
       d="M 10.855056,6.5463848 H 7.7511582 c 0.01438,0.040979 0.03046,0.08191 0.0482,0.1227998 h 3.0071268 c 0.01781,-0.040842 0.03405,-0.081773 0.04857,-0.1227998 z"
       id="path43233"
       style="stroke:#000000;stroke-width:0.3;stroke-dasharray:none;stroke-opacity:1" /><path
       d="M 10.772613,11.920915 H 7.9374477 c -0.02536,0.04084 -0.04942,0.08177 -0.07191,0.1228 h 2.9790643 c -0.02252,-0.04096 -0.0465,-0.08189 -0.07198,-0.1228 z"
       id="path43249"
       style="stroke:#000000;stroke-width:0.3;stroke-dasharray:none;stroke-opacity:1" /></g></svg>
