<?xml version="1.0" encoding="UTF-8" standalone="no"?>
<svg
   inkscape:version="1.2.2 (b0a84865, 2022-12-01)"
   sodipodi:docname="domain-humanities-social.svg"
   id="svg272"
   version="1.1"
   height="20"
   width="20"
   xml:space="preserve"
   xmlns:inkscape="http://www.inkscape.org/namespaces/inkscape"
   xmlns:sodipodi="http://sodipodi.sourceforge.net/DTD/sodipodi-0.dtd"
   xmlns="http://www.w3.org/2000/svg"
   xmlns:svg="http://www.w3.org/2000/svg"><defs
     id="defs276"><marker
       style="overflow:visible"
       id="TriangleStart"
       refX="0"
       refY="0"
       orient="auto-start-reverse"
       inkscape:stockid="TriangleStart"
       markerWidth="3.5"
       markerHeight="7"
       viewBox="0 0 5.3244081 6.1553851"
       inkscape:isstock="true"
       inkscape:collect="always"
       preserveAspectRatio="xMidYMid"><path
         transform="scale(0.5)"
         style="fill:context-stroke;fill-rule:evenodd;stroke:context-stroke;stroke-width:1pt"
         d="M 5.77,0 -2.88,5 V -5 Z"
         id="path135" /></marker></defs><sodipodi:namedview
     id="namedview274"
     pagecolor="#ffffff"
     bordercolor="#000000"
     borderopacity="0.25"
     inkscape:showpageshadow="2"
     inkscape:pageopacity="0.0"
     inkscape:pagecheckerboard="0"
     inkscape:deskcolor="#d1d1d1"
     showgrid="false"
     inkscape:zoom="15"
     inkscape:cx="6.3"
     inkscape:cy="3.5666667"
     inkscape:window-width="1390"
     inkscape:window-height="1177"
     inkscape:window-x="666"
     inkscape:window-y="122"
     inkscape:window-maximized="0"
     inkscape:current-layer="svg272" /><g
     aria-label="}"
     transform="matrix(0,-1.7577816,2.3396076,0,-35.195125,10.739628)"
     id="text1716"
     style="font-stretch:condensed;font-size:7.56197px;font-family:Impact;-inkscape-font-specification:'Impact, Condensed';text-align:center;text-anchor:middle;stroke-width:0.246556;stroke-dasharray:none" /><path
     style="fill:none;stroke:#000000;stroke-width:1;stroke-dasharray:none;stroke-opacity:1;marker-end:url(#TriangleStart)"
     d="M 10.154872,19.916996 V 19.542878 19.168762 16.92406"
     id="path2948"
     sodipodi:nodetypes="cccc" /><g
     aria-label="}"
     transform="matrix(0,-1.7577816,2.3396076,0,-33.66346,38.675171)"
     id="text1716-9"
     style="font-stretch:condensed;font-size:7.56197px;font-family:Impact;-inkscape-font-specification:'Impact, Condensed';text-align:center;text-anchor:middle;stroke-width:0.246556;stroke-dasharray:none" /><g
     aria-label="}"
     transform="matrix(0,-1.7577816,2.3396076,0,-32.195125,40.691887)"
     id="text1716-0"
     style="font-stretch:condensed;font-size:7.56197px;font-family:Impact;-inkscape-font-specification:'Impact, Condensed';text-align:center;text-anchor:middle;stroke-width:0.246556;stroke-dasharray:none" /><path
     style="fill:none;stroke:#000000;stroke-width:1;stroke-dasharray:none;stroke-opacity:1;marker-end:url(#TriangleStart)"
     d="M 4.8548723,19.916996 V 19.542878 19.168762 16.92406"
     id="path16074"
     sodipodi:nodetypes="cccc" /><path
     style="fill:none;stroke:#000000;stroke-width:1;stroke-dasharray:none;stroke-opacity:1;marker-end:url(#TriangleStart)"
     d="M 15.245662,19.847259 V 19.473141 19.099025 16.854323"
     id="path16086"
     sodipodi:nodetypes="cccc" /><g
     aria-label="}"
     transform="matrix(0,-1.7577816,2.3396076,0,-36.935521,19.286306)"
     id="text1716-3"
     style="font-stretch:condensed;font-size:7.56197px;font-family:Impact;-inkscape-font-specification:'Impact, Condensed';text-align:center;text-anchor:middle;stroke-width:0.246556;stroke-dasharray:none" /><path
     unicode="îƒ"
     d="m 6.3000034,0.33333333 h 8.9374896 q 0.812501,0 0.812501,0.81250127 v 9.7499834 q 0,0.270834 -0.194996,0.465838 l -0.693335,0.693334 q -0.08666,0.08667 -0.140831,0.05958 -0.05418,-0.02709 -0.05418,-0.135421 V 1.6875021 q 0,-0.1083384 -0.08124,-0.1895861 -0.08124,-0.081248 -0.189586,-0.081248 H 7.1124966 q -0.2708337,0 -0.4658299,0.1949962 L 5.953332,2.3049991 q -0.086666,0.086666 -0.059583,0.1408311 0.02709,0.054181 0.1354128,0.054181 h 7.5833292 q 0.10833,0 0.189578,0.081256 0.08125,0.081248 0.08125,0.189578 V 13.062502 q 0,0.108331 -0.08125,0.189579 -0.08124,0.08125 -0.189578,0.08125 H 4.4041671 q -0.1083303,0 -0.189586,-0.08125 -0.081248,-0.08125 -0.081248,-0.189578 V 2.5000113 q 0,-0.2708338 0.1949962,-0.46583 L 5.8341655,0.52834538 Q 6.0291616,0.33334922 6.2999953,0.33334922 Z"
     id="path40094"
     style="stroke-width:0.0108333" /></svg>
