<?xml version="1.0" encoding="UTF-8" standalone="no"?>
<svg
   inkscape:version="1.2.2 (b0a84865, 2022-12-01)"
   sodipodi:docname="domain-physical-sciences.svg"
   id="svg272"
   version="1.1"
   height="20"
   width="20"
   xml:space="preserve"
   xmlns:inkscape="http://www.inkscape.org/namespaces/inkscape"
   xmlns:sodipodi="http://sodipodi.sourceforge.net/DTD/sodipodi-0.dtd"
   xmlns="http://www.w3.org/2000/svg"
   xmlns:svg="http://www.w3.org/2000/svg"><defs
     id="defs276"><marker
   style="overflow:visible"
   id="TriangleStart"
   refX="0"
   refY="0"
   orient="auto-start-reverse"
   inkscape:stockid="TriangleStart"
   markerWidth="3.5"
   markerHeight="7"
   viewBox="0 0 5.3244081 6.1553851"
   inkscape:isstock="true"
   inkscape:collect="always"
   preserveAspectRatio="xMidYMid"><path
     transform="scale(0.5)"
     style="fill:context-stroke;fill-rule:evenodd;stroke:context-stroke;stroke-width:1pt"
     d="M 5.77,0 -2.88,5 V -5 Z"
     id="path135" /></marker>
	
	
	
	
	
	
	
	
	
	
	
	
	
	
	
	
	
	
	
	
	
	
	
	
	
</defs><sodipodi:namedview
     id="namedview274"
     pagecolor="#ffffff"
     bordercolor="#000000"
     borderopacity="0.25"
     inkscape:showpageshadow="2"
     inkscape:pageopacity="0.0"
     inkscape:pagecheckerboard="0"
     inkscape:deskcolor="#d1d1d1"
     showgrid="false"
     inkscape:zoom="15"
     inkscape:cx="3.6333333"
     inkscape:cy="-6.1666667"
     inkscape:window-width="1390"
     inkscape:window-height="1177"
     inkscape:window-x="666"
     inkscape:window-y="122"
     inkscape:window-maximized="0"
     inkscape:current-layer="svg272" /><path
     style="fill:none;stroke:#000000;stroke-width:1;stroke-dasharray:none;stroke-opacity:1;marker-end:url(#TriangleStart)"
     d="M 10.154872,19.916996 V 19.542878 19.168762 16.92406"
     id="path2948"
     sodipodi:nodetypes="cccc" /><path
     style="fill:none;stroke:#000000;stroke-width:1;stroke-dasharray:none;stroke-opacity:1;marker-end:url(#TriangleStart)"
     d="M 4.8548723,19.916996 V 19.542878 19.168762 16.92406"
     id="path16074"
     sodipodi:nodetypes="cccc" /><path
     style="fill:none;stroke:#000000;stroke-width:1;stroke-dasharray:none;stroke-opacity:1;marker-end:url(#TriangleStart)"
     d="M 15.245662,19.847259 V 19.473141 19.099025 16.854323"
     id="path16086"
     sodipodi:nodetypes="cccc" /><g
     id="g51142"
     transform="matrix(0.14235042,0,0,0.14235042,3.2096774,0.80967743)"
     style="stroke:#000000;stroke-width:2.94593;stroke-dasharray:none;stroke-opacity:1"><path
       d="M 100,44.189 C 100,37.393 89.37,32.367 75.217,29.66 76.372,26.338 77.322,23.122 77.981,20.119 80.174,10.094 79.114,3.263 75,0.888 73.981,0.3 72.807,0 71.51,0 65.89,0 58.05,5.665 50.001,15 41.955,5.665 34.115,0 28.49,0 27.196,0 26.02,0.3 24.999,0.888 19.108,4.288 20.081,16.029 24.824,29.655 10.651,32.356 0,37.386 0,44.189 c 0,6.799 10.634,11.822 24.79,14.531 -1.161,3.323 -2.11,6.536 -2.767,9.539 -2.194,10.027 -1.136,16.857 2.976,19.231 1.021,0.589 2.197,0.886 3.491,0.886 5.625,0 13.464,-5.667 21.511,-14.998 8.047,9.331 15.886,15 21.509,15 1.297,0 2.472,-0.299 3.49,-0.888 4.114,-2.374 5.174,-9.204 2.98,-19.231 C 77.322,65.256 76.372,62.043 75.214,58.72 89.37,56.012 100,50.988 100,44.189 Z M 71.51,2.584 c 0.838,0 1.579,0.187 2.199,0.543 3.016,1.741 3.651,7.733 1.747,16.44 -0.661,3.022 -1.628,6.264 -2.814,9.63 C 68.476,28.502 64.057,28.003 59.546,27.707 56.974,23.82 54.34,20.243 51.712,17.037 59.293,8.176 66.646,2.584 71.51,2.584 Z m -9.198,48.71 c -1.375,2.379 -2.794,4.684 -4.242,6.9 -2.597,0.132 -5.287,0.206 -8.069,0.206 -2.782,0 -5.474,-0.074 -8.067,-0.206 -1.452,-2.217 -2.87,-4.521 -4.242,-6.9 -1.388,-2.406 -2.669,-4.771 -3.849,-7.081 1.204,-2.369 2.477,-4.753 3.851,-7.13 1.37,-2.377 2.79,-4.68 4.24,-6.901 2.593,-0.131 5.285,-0.205 8.067,-0.205 2.782,0 5.473,0.074 8.069,0.205 1.448,2.222 2.866,4.524 4.239,6.901 1.37,2.37 2.64,4.747 3.842,7.106 -1.202,2.362 -2.471,4.739 -3.839,7.105 z m 5.259,-4.225 c 1.587,3.303 3,6.558 4.2,9.72 -3.25,0.521 -6.758,0.926 -10.488,1.203 1.104,-1.75 2.194,-3.554 3.265,-5.404 1.062,-1.837 2.059,-3.681 3.023,-5.519 z m -11.277,13.78 c -2.068,3.019 -4.182,5.854 -6.293,8.444 -2.109,-2.591 -4.22,-5.426 -6.294,-8.444 2.095,0.088 4.196,0.138 6.294,0.138 2.099,-0.001 4.201,-0.05 6.293,-0.138 z M 38.721,57.992 c -3.733,-0.277 -7.241,-0.683 -10.49,-1.203 1.202,-3.157 2.611,-6.414 4.197,-9.72 0.97,1.858 1.979,3.701 3.026,5.519 1.071,1.85 2.161,3.654 3.267,5.404 z M 32.417,41.338 c -1.636,-3.389 -3.046,-6.653 -4.226,-9.741 3.26,-0.52 6.781,-0.931 10.53,-1.212 -1.107,1.751 -2.197,3.553 -3.268,5.407 -1.067,1.847 -2.065,3.701 -3.036,5.546 z M 43.711,27.533 c 2.07,-3.019 4.181,-5.855 6.29,-8.449 2.111,2.594 4.225,5.43 6.293,8.449 -2.093,-0.091 -4.194,-0.14 -6.293,-0.14 -2.098,10e-4 -4.199,0.049 -6.29,0.14 z m 20.837,8.259 c -1.07,-1.859 -2.16,-3.656 -3.265,-5.407 3.73,0.281 7.238,0.687 10.488,1.205 -1.2,3.157 -2.613,6.419 -4.2,9.722 -0.964,-1.838 -1.961,-3.683 -3.023,-5.52 z M 26.294,3.127 c 0.619,-0.359 1.36,-0.543 2.196,-0.543 4.864,0 12.217,5.592 19.8,14.453 -2.626,3.206 -5.262,6.783 -7.834,10.67 -4.526,0.296 -8.962,0.802 -13.144,1.5 C 22.426,15.413 22.276,5.445 26.294,3.127 Z M 2.585,44.189 c 0,-4.637 8.707,-9.493 23.096,-12.159 1.487,3.974 3.268,8.069 5.277,12.14 -2.061,4.14 -3.843,8.229 -5.323,12.167 C 11.271,53.673 2.585,48.821 2.585,44.189 Z M 28.49,85.794 c -0.848,0 -1.564,-0.178 -2.196,-0.538 -3.015,-1.742 -3.652,-7.734 -1.746,-16.442 0.662,-3.023 1.626,-6.269 2.814,-9.633 4.166,0.696 8.586,1.195 13.092,1.491 2.574,3.885 5.207,7.462 7.834,10.671 -7.58,8.86 -14.934,14.451 -19.798,14.451 z M 75.452,68.813 c 1.907,8.708 1.272,14.7 -1.743,16.442 -0.623,0.355 -1.361,0.539 -2.199,0.539 -4.864,0 -12.217,-5.592 -19.798,-14.452 2.628,-3.209 5.262,-6.786 7.837,-10.671 4.508,-0.296 8.927,-0.795 13.093,-1.491 1.186,3.365 2.153,6.61 2.81,9.633 z M 74.366,56.338 c -1.476,-3.933 -3.254,-8.014 -5.31,-12.148 2.056,-4.135 3.834,-8.217 5.312,-12.148 14.361,2.665 23.049,7.519 23.049,12.148 0,4.631 -8.688,9.483 -23.051,12.148 z"
       id="path51129"
       style="stroke:#000000;stroke-width:2.94593;stroke-dasharray:none;stroke-opacity:1" /><circle
       cy="44.188999"
       cx="50.000999"
       r="5.4920001"
       id="circle51131"
       style="stroke:#000000;stroke-width:2.94593;stroke-dasharray:none;stroke-opacity:1" /></g></svg>
