<?xml version="1.0" encoding="UTF-8" standalone="no"?>
<svg
   inkscape:version="1.2.2 (b0a84865, 2022-12-01)"
   sodipodi:docname="interaction-techniques.svg"
   id="svg272"
   version="1.1"
   height="20"
   width="20"
   xml:space="preserve"
   xmlns:inkscape="http://www.inkscape.org/namespaces/inkscape"
   xmlns:sodipodi="http://sodipodi.sourceforge.net/DTD/sodipodi-0.dtd"
   xmlns="http://www.w3.org/2000/svg"
   xmlns:svg="http://www.w3.org/2000/svg"><defs
     id="defs276" /><sodipodi:namedview
     id="namedview274"
     pagecolor="#ffffff"
     bordercolor="#000000"
     borderopacity="0.25"
     inkscape:showpageshadow="2"
     inkscape:pageopacity="0.0"
     inkscape:pagecheckerboard="0"
     inkscape:deskcolor="#d1d1d1"
     showgrid="false"
     inkscape:zoom="10"
     inkscape:cx="10.35"
     inkscape:cy="26.65"
     inkscape:window-width="1390"
     inkscape:window-height="1177"
     inkscape:window-x="662"
     inkscape:window-y="121"
     inkscape:window-maximized="0"
     inkscape:current-layer="svg272" /><g
     aria-label="}"
     transform="matrix(0,-1.7577816,2.3396076,0,-15.945901,29.703296)"
     id="text1716"
     style="font-stretch:condensed;font-size:7.56197px;font-family:Impact;-inkscape-font-specification:'Impact, Condensed';text-align:center;text-anchor:middle;stroke-width:0.246556;stroke-dasharray:none" /><path
     unicode="î¨"
     d="M 5.7982941,5.1492446 9.825453,1.122101 Q 9.947554,1 10.100031,1 q 0.152532,0 0.274577,0.122101 l 3.966138,4.0271436 q 0.106794,0.1221012 0.06871,0.1983166 -0.03811,0.076201 -0.190683,0.076201 h -2.593237 v 3.0508755 h 3.050876 V 5.8356354 q 0,-0.1525518 0.07619,-0.1830616 0.07619,-0.030451 0.198317,0.076201 l 4.027144,3.966138 q 0.122094,0.1068012 0.122094,0.2669572 0,0.160171 -0.122094,0.266942 l -4.027144,4.042414 q -0.122094,0.106801 -0.198317,0.0762 -0.07619,-0.03045 -0.07619,-0.183061 v -2.639003 h -3.050876 v 3.050875 h 2.593237 q 0.15255,0 0.190683,0.0762 0.03811,0.0762 -0.06871,0.198317 l -3.966138,4.027143 Q 10.252507,19 10.100031,19 9.947499,19 9.825453,18.877906 L 5.7982941,14.850755 q -0.122101,-0.122101 -0.083851,-0.198316 0.0381,-0.0762 0.1906819,-0.0762 H 8.574637 V 11.525363 H 5.5237619 v 2.639002 q 0,0.152551 -0.076201,0.183061 -0.076201,0.03045 -0.1983166,-0.0762 L 1.222101,10.228812 Q 1.1,10.122011 1.1,9.9618697 1.1,9.8016985 1.2221012,9.6949124 L 5.2492448,5.7287744 Q 5.371346,5.6219732 5.4475614,5.6525734 5.5237624,5.6830244 5.5237624,5.835635 V 8.4746373 H 8.574637 V 5.4237619 H 5.905125 q -0.1525518,0 -0.1906815,-0.076201 -0.038101,-0.076201 0.083851,-0.1983163 z"
     id="path80669"
     style="stroke-width:0.0152544" /></svg>
