<?xml version="1.0" encoding="iso-8859-1"?>
<!-- Generator: Adobe Illustrator 25.2.3, SVG Export Plug-In . SVG Version: 6.00 Build 0)  -->
<svg version="1.1" baseProfile="basic" xmlns="http://www.w3.org/2000/svg" xmlns:xlink="http://www.w3.org/1999/xlink" x="0px"
	 y="0px" viewBox="0 0 50 50" xml:space="preserve">
<path d="M10.69,33.1c-0.48,0.28-0.96,0.54-1.43,0.8l-8.83-6.04c-0.3-0.21-0.47-0.57-0.42-0.94c0.04-0.37,0.28-0.68,0.63-0.82
	l11.8-4.56l6.22,4.65C16.19,29.61,12.66,31.96,10.69,33.1z"/>
<path d="M19.74,24.51l-5.45-4.09c0.47-0.63,1.2-1.52,2.1-2.42c1.13-1.12,2.17-1.7,3.18-2.26c0.52-0.29,1.04-0.58,1.62-0.95
	c1.28-0.84,2.59-2.96,3.98-5.2l0.38-0.61c0.89-1.46,1.8-2.93,2.8-4.15c-1.25,2.45-2.65,5.84-4.42,10.21
	C22.44,18.73,21.01,22.24,19.74,24.51z"/>
<path d="M49.53,39.37c-0.38,0.24-0.87,0.19-1.2-0.11c-1.99-1.81-8.06-6.63-11-6.18c-2.03,0.33-3.47,2.54-5.13,5.11
	c-1.19,1.83-2.53,3.9-4.33,5.69c-2.99,2.95-5.83,3.55-6.14,3.61c-0.06,0.01-0.13,0.02-0.19,0.02c-0.23,0-0.45-0.08-0.63-0.23
	c-0.23-0.19-0.37-0.47-0.37-0.76c0-0.08-0.11-7.87-4.47-10.48c-1.53-0.92-3.19-1.06-4.04-1.06c-0.34,0-0.58,0.03-0.67,0.04
	c0.11-0.06,0.22-0.13,0.33-0.19c2.26-1.31,6.47-4.13,9.18-8.31c1.51-2.33,3.17-6.41,4.92-10.73C28.41,9.33,31.38,2,33,2
	c6.29,0,15.23,30.19,16.96,36.25C50.08,38.67,49.91,39.13,49.53,39.37z"/>
</svg>