<?xml version="1.0" encoding="UTF-8" standalone="no"?>
<svg
   width="20"
   height="20"
   version="1.1"
   id="svg272"
   sodipodi:docname="output-above500.svg"
   inkscape:version="1.2.2 (b0a84865, 2022-12-01)"
   xmlns:inkscape="http://www.inkscape.org/namespaces/inkscape"
   xmlns:sodipodi="http://sodipodi.sourceforge.net/DTD/sodipodi-0.dtd"
   xmlns="http://www.w3.org/2000/svg"
   xmlns:svg="http://www.w3.org/2000/svg">
  <defs
     id="defs276" />
  <sodipodi:namedview
     id="namedview274"
     pagecolor="#ffffff"
     bordercolor="#000000"
     borderopacity="0.25"
     inkscape:showpageshadow="2"
     inkscape:pageopacity="0.0"
     inkscape:pagecheckerboard="0"
     inkscape:deskcolor="#d1d1d1"
     showgrid="false"
     inkscape:zoom="5"
     inkscape:cx="23.7"
     inkscape:cy="28.3"
     inkscape:window-width="1390"
     inkscape:window-height="1205"
     inkscape:window-x="660"
     inkscape:window-y="121"
     inkscape:window-maximized="0"
     inkscape:current-layer="svg272" />
  <g
     aria-label="&gt; 500"
     transform="scale(0.88669595,1.1277823)"
     id="text607"
     style="font-stretch:condensed;font-size:7.56197px;font-family:Impact;-inkscape-font-specification:'Impact, Condensed';text-align:center;text-anchor:middle;stroke-width:1.13429">
    <path
       d="M 2.7650636,1.3846138 6.3171218,2.8615611 V 3.6148042 L 2.7650636,5.0991362 V 4.124351 L 4.9583303,3.241875 2.7650636,2.3630913 Z"
       id="path116565" />
    <path
       d="M 11.41259,0.31751932 V 1.2738427 H 9.5627137 V 2.289244 q 0.3470826,-0.4098529 0.8935533,-0.4098529 0.616625,0 0.930477,0.3470826 0.317543,0.3433903 0.317543,1.3255602 V 4.404971 q 0,0.6350873 -0.06277,0.9341692 -0.05908,0.2953894 -0.258466,0.5501629 -0.199388,0.251081 -0.557547,0.3876986 -0.354468,0.1329253 -0.8677069,0.1329253 -0.5760095,0 -1.0154013,-0.1993879 Q 8.503004,6.0074588 8.3183856,5.6086831 8.1337671,5.2099073 8.1337671,4.3754321 V 4.0505036 h 1.4917168 v 0.3729292 q 0,0.5797019 0.040616,0.8233982 0.040616,0.2436963 0.28062,0.2436963 0.110771,0 0.177234,-0.070155 0.07015,-0.070155 0.07385,-0.1513871 0.0074,-0.081232 0.01477,-0.7052424 V 3.3784926 q 0,-0.3360055 -0.07015,-0.4578536 -0.07015,-0.1218482 -0.2326187,-0.1218482 -0.1033863,0 -0.1735413,0.06277 -0.070155,0.06277 -0.092309,0.1366176 -0.018462,0.070155 -0.018462,0.3323131 H 8.1485366 l 0.06277,-3.01297248 z"
       id="path116567" />
    <path
       d="M 15.732661,2.3409371 V 4.334816 q 0,0.6793958 -0.07385,0.9895547 -0.07385,0.3101589 -0.306467,0.5797018 -0.232619,0.2695429 -0.56124,0.3876987 -0.328621,0.1181558 -0.734781,0.1181558 -0.535393,0 -0.889861,-0.1218482 Q 12.811998,6.1625383 12.601533,5.9003802 12.391068,5.638222 12.302451,5.3502173 12.213834,5.0585202 12.213834,4.4271252 V 2.3409371 q 0,-0.8233981 0.14031,-1.233251 0.144003,-0.40985285 0.564933,-0.65724152 0.424622,-0.24738868 1.026478,-0.24738868 0.491085,0 0.878784,0.17354131 0.387698,0.16984894 0.579701,0.41723762 0.192004,0.24738867 0.258466,0.55754757 0.07015,0.310159 0.07015,0.9895547 z m -1.491717,-0.502162 q 0,-0.4763156 -0.048,-0.5944713 -0.04431,-0.1218482 -0.214158,-0.1218482 -0.166156,0 -0.221542,0.1292329 -0.05169,0.1255405 -0.05169,0.5870866 V 4.755746 q 0,0.5206239 0.048,0.6277026 0.05169,0.1070787 0.217849,0.1070787 0.166157,0 0.21785,-0.1255405 0.05169,-0.1255406 0.05169,-0.5649324 z"
       id="path116569" />
    <path
       d="M 19.786881,2.3409371 V 4.334816 q 0,0.6793958 -0.07385,0.9895547 -0.07385,0.3101589 -0.306467,0.5797018 -0.232619,0.2695429 -0.56124,0.3876987 -0.32862,0.1181558 -0.734781,0.1181558 -0.535393,0 -0.889861,-0.1218482 Q 16.866218,6.1625383 16.655753,5.9003802 16.445288,5.638222 16.356671,5.3502173 16.268054,5.0585202 16.268054,4.4271252 V 2.3409371 q 0,-0.8233981 0.14031,-1.233251 0.144003,-0.40985285 0.564933,-0.65724152 0.424622,-0.24738868 1.026478,-0.24738868 0.491085,0 0.878784,0.17354131 0.387698,0.16984894 0.579702,0.41723762 0.192003,0.24738867 0.258465,0.55754757 0.07015,0.310159 0.07015,0.9895547 z m -1.491716,-0.502162 q 0,-0.4763156 -0.048,-0.5944713 -0.04431,-0.1218482 -0.214158,-0.1218482 -0.166156,0 -0.221542,0.1292329 -0.05169,0.1255405 -0.05169,0.5870866 V 4.755746 q 0,0.5206239 0.048,0.6277026 0.05169,0.1070787 0.21785,0.1070787 0.166156,0 0.217849,-0.1255405 0.05169,-0.1255406 0.05169,-0.5649324 z"
       id="path116571" />
  </g>
  <g
     aria-label="[ ····· ]"
     transform="scale(0.88669595,1.1277823)"
     id="text1702"
     style="font-stretch:condensed;font-size:7.56197px;font-family:Impact;-inkscape-font-specification:'Impact, Condensed';text-align:center;text-anchor:middle;stroke-width:1.13429">
    <path
       d="m 3.5164605,11.135209 v 0.9194 H 3.180455 v 4.139145 h 0.3360055 v 0.919399 H 1.8290482 v -5.977944 z"
       id="path131111" />
    <path
       d="m 6.2451209,13.996795 q 0.2178497,0 0.3803139,0.155079 0.1624642,0.15508 0.1624642,0.384006 0,0.225235 -0.1587718,0.384007 -0.1587719,0.158772 -0.3840063,0.158772 -0.2215421,0 -0.380314,-0.158772 -0.1587718,-0.158772 -0.1587718,-0.384007 0,-0.225234 0.1587718,-0.380314 0.1587719,-0.158771 0.380314,-0.158771 z"
       id="path131113" />
    <path
       d="m 8.7670082,13.996795 q 0.2178497,0 0.3803139,0.155079 0.1624642,0.15508 0.1624642,0.384006 0,0.225235 -0.1587718,0.384007 -0.1587719,0.158772 -0.3840063,0.158772 -0.2215421,0 -0.380314,-0.158772 -0.1587718,-0.158772 -0.1587718,-0.384007 0,-0.225234 0.1587718,-0.380314 0.1587719,-0.158771 0.380314,-0.158771 z"
       id="path131115" />
    <path
       d="m 11.288896,13.996795 q 0.21785,0 0.380314,0.155079 0.162464,0.15508 0.162464,0.384006 0,0.225235 -0.158772,0.384007 -0.158772,0.158772 -0.384006,0.158772 -0.221542,0 -0.380314,-0.158772 -0.158772,-0.158772 -0.158772,-0.384007 0,-0.225234 0.158772,-0.380314 0.158772,-0.158771 0.380314,-0.158771 z"
       id="path131117" />
    <path
       d="m 13.810784,13.996795 q 0.217849,0 0.380314,0.155079 0.162464,0.15508 0.162464,0.384006 0,0.225235 -0.158772,0.384007 -0.158772,0.158772 -0.384006,0.158772 -0.221542,0 -0.380314,-0.158772 -0.158772,-0.158772 -0.158772,-0.384007 0,-0.225234 0.158772,-0.380314 0.158772,-0.158771 0.380314,-0.158771 z"
       id="path131119" />
    <path
       d="m 16.332671,13.996795 q 0.217849,0 0.380313,0.155079 0.162465,0.15508 0.162465,0.384006 0,0.225235 -0.158772,0.384007 -0.158772,0.158772 -0.384006,0.158772 -0.221543,0 -0.380314,-0.158772 -0.158772,-0.158772 -0.158772,-0.384007 0,-0.225234 0.158772,-0.380314 0.158771,-0.158771 0.380314,-0.158771 z"
       id="path131121" />
    <path
       d="m 19.061332,17.113153 v -0.919399 h 0.336005 v -4.139145 h -0.336005 v -0.9194 h 1.687412 v 5.977944 z"
       id="path131123" />
  </g>
  <g
     aria-label="}"
     transform="matrix(0,-1.7577816,2.3396076,0,-15.945901,29.703296)"
     id="text1716"
     style="font-stretch:condensed;font-size:7.56197px;font-family:Impact;-inkscape-font-specification:'Impact, Condensed';text-align:center;text-anchor:middle;stroke-width:0.246556;stroke-dasharray:none" />
  <g
     aria-label="}"
     transform="matrix(0,-1.9399398,2.5631892,0,-20.09282,31.857871)"
     id="text4666"
     style="font-size:7.56197px;font-family:'American Typewriter';-inkscape-font-specification:'American Typewriter, Normal';text-align:center;text-anchor:middle;stroke-width:1.13429">
    <path
       d="m 11.184882,12.590876 q 0,-0.362975 0.0983,-0.552024 0.09831,-0.189049 0.362975,-0.332727 -0.257107,-0.136115 -0.362975,-0.332726 -0.0983,-0.204174 -0.0983,-0.559586 V 9.5963356 q 0,-0.4159083 -0.143678,-0.5444618 Q 10.897527,8.9157583 10.458932,8.9157583 V 8.4393542 h 0.211736 q 0.574709,0 0.816692,0.257107 0.249545,0.249545 0.249545,0.8545026 v 1.2477252 q 0,0.597396 0.431033,0.703263 v 0.446156 q -0.431033,0.120992 -0.431033,0.673016 v 1.330906 q 0,0.552024 -0.249545,0.794007 -0.249545,0.241983 -0.816692,0.241983 h -0.211736 v -0.476404 q 0.438595,-0.0076 0.582272,-0.136115 0.143678,-0.128554 0.143678,-0.521776 z"
       id="path4670" />
  </g>
</svg>
