<?xml version="1.0" encoding="UTF-8" standalone="no"?>
<svg
   width="20"
   height="20"
   version="1.1"
   id="svg272"
   sodipodi:docname="output-under500.svg"
   inkscape:version="1.2.2 (b0a84865, 2022-12-01)"
   xmlns:inkscape="http://www.inkscape.org/namespaces/inkscape"
   xmlns:sodipodi="http://sodipodi.sourceforge.net/DTD/sodipodi-0.dtd"
   xmlns="http://www.w3.org/2000/svg"
   xmlns:svg="http://www.w3.org/2000/svg">
  <defs
     id="defs276" />
  <sodipodi:namedview
     id="namedview274"
     pagecolor="#ffffff"
     bordercolor="#000000"
     borderopacity="0.25"
     inkscape:showpageshadow="2"
     inkscape:pageopacity="0.0"
     inkscape:pagecheckerboard="0"
     inkscape:deskcolor="#d1d1d1"
     showgrid="false"
     inkscape:zoom="5"
     inkscape:cx="26.9"
     inkscape:cy="-52.7"
     inkscape:window-width="1390"
     inkscape:window-height="1205"
     inkscape:window-x="660"
     inkscape:window-y="121"
     inkscape:window-maximized="0"
     inkscape:current-layer="svg272" />
  <g
     aria-label="50-500"
     transform="scale(0.88669595,1.1277823)"
     id="text607"
     style="font-stretch:condensed;font-size:7.56197px;font-family:Impact;-inkscape-font-specification:'Impact, Condensed';text-align:center;text-anchor:middle;stroke-width:1.13429">
    <path
       d="M 3.5607689,0.31751932 V 1.2738427 H 1.7108924 V 2.289244 Q 2.057975,1.8793911 2.6044455,1.8793911 q 0.6166255,0 0.9304769,0.3470826 Q 3.852466,2.569864 3.852466,3.5520339 V 4.404971 q 0,0.6350873 -0.06277,0.9341692 Q 3.7306179,5.6345296 3.53123,5.8893031 3.3318421,6.1403841 2.9736824,6.2770017 2.619215,6.409927 2.1059758,6.409927 1.5299664,6.409927 1.0905746,6.2105391 0.65118273,6.0074588 0.46656431,5.6086831 0.2819459,5.2099073 0.2819459,4.3754321 V 4.0505036 h 1.4917168 v 0.3729292 q 0,0.5797019 0.040616,0.8233982 0.040616,0.2436963 0.28062,0.2436963 0.1107711,0 0.1772337,-0.070155 0.070155,-0.070155 0.073847,-0.1513871 0.00738,-0.081232 0.014769,-0.7052424 V 3.3784926 q 0,-0.3360055 -0.070155,-0.4578536 -0.070155,-0.1218482 -0.2326192,-0.1218482 -0.1033863,0 -0.1735413,0.06277 -0.070155,0.06277 -0.092309,0.1366176 -0.018462,0.070155 -0.018462,0.3323131 H 0.29671537 l 0.0627703,-3.01297248 z"
       id="path122451" />
    <path
       d="M 7.8808399,2.3409371 V 4.334816 q 0,0.6793958 -0.073847,0.9895547 Q 7.7331452,5.6345296 7.500526,5.9040725 7.2679068,6.1736154 6.939286,6.2917712 6.6106652,6.409927 6.2045047,6.409927 5.6691113,6.409927 5.314644,6.2880788 4.9601766,6.1625383 4.7497116,5.9003802 4.5392466,5.638222 4.4506298,5.3502173 4.3620129,5.0585202 4.3620129,4.4271252 V 2.3409371 q 0,-0.8233981 0.14031,-1.233251 Q 4.6463253,0.69783325 5.0672553,0.45044458 5.4918776,0.2030559 6.0937337,0.2030559 q 0.4910849,0 0.8787836,0.17354131 0.3876987,0.16984894 0.5797018,0.41723762 0.1920032,0.24738867 0.2584658,0.55754757 0.070155,0.310159 0.070155,0.9895547 z M 6.3891231,1.8387751 q 0,-0.4763156 -0.048001,-0.5944713 -0.044308,-0.1218482 -0.2141573,-0.1218482 -0.1661566,0 -0.2215421,0.1292329 -0.051693,0.1255405 -0.051693,0.5870866 V 4.755746 q 0,0.5206239 0.048001,0.6277026 0.051693,0.1070787 0.2178497,0.1070787 0.1661566,0 0.2178498,-0.1255405 0.051693,-0.1255406 0.051693,-0.5649324 z"
       id="path122453" />
    <path
       d="M 10.243955,3.3304918 V 4.3606626 H 8.2833079 V 3.3304918 Z"
       id="path122455" />
    <path
       d="M 13.8994,0.31751932 V 1.2738427 H 12.049523 V 2.289244 q 0.347083,-0.4098529 0.893553,-0.4098529 0.616626,0 0.930477,0.3470826 0.317544,0.3433903 0.317544,1.3255602 V 4.404971 q 0,0.6350873 -0.06277,0.9341692 -0.05908,0.2953894 -0.258465,0.5501629 -0.199388,0.251081 -0.557548,0.3876986 -0.354467,0.1329253 -0.867706,0.1329253 -0.57601,0 -1.015402,-0.1993879 -0.439392,-0.2030803 -0.62401,-0.601856 -0.184618,-0.3987758 -0.184618,-1.233251 V 4.0505036 h 1.491716 v 0.3729292 q 0,0.5797019 0.04062,0.8233982 0.04062,0.2436963 0.28062,0.2436963 0.110771,0 0.177234,-0.070155 0.07015,-0.070155 0.07385,-0.1513871 0.0074,-0.081232 0.01477,-0.7052424 V 3.3784926 q 0,-0.3360055 -0.07015,-0.4578536 -0.07015,-0.1218482 -0.232619,-0.1218482 -0.103387,0 -0.173542,0.06277 -0.07016,0.06277 -0.09231,0.1366176 -0.01846,0.070155 -0.01846,0.3323131 h -1.476947 l 0.06277,-3.01297248 z"
       id="path122457" />
    <path
       d="M 18.219471,2.3409371 V 4.334816 q 0,0.6793958 -0.07385,0.9895547 -0.07385,0.3101589 -0.306466,0.5797018 -0.23262,0.2695429 -0.56124,0.3876987 -0.328621,0.1181558 -0.734782,0.1181558 -0.535393,0 -0.88986,-0.1218482 Q 15.298807,6.1625383 15.088342,5.9003802 14.877877,5.638222 14.78926,5.3502173 14.700644,5.0585202 14.700644,4.4271252 V 2.3409371 q 0,-0.8233981 0.14031,-1.233251 0.144002,-0.40985285 0.564932,-0.65724152 0.424622,-0.24738868 1.026478,-0.24738868 0.491085,0 0.878784,0.17354131 0.387699,0.16984894 0.579702,0.41723762 0.192003,0.24738867 0.258466,0.55754757 0.07015,0.310159 0.07015,0.9895547 z m -1.491717,-0.502162 q 0,-0.4763156 -0.048,-0.5944713 -0.04431,-0.1218482 -0.214157,-0.1218482 -0.166157,0 -0.221542,0.1292329 -0.05169,0.1255405 -0.05169,0.5870866 V 4.755746 q 0,0.5206239 0.048,0.6277026 0.05169,0.1070787 0.21785,0.1070787 0.166156,0 0.21785,-0.1255405 0.05169,-0.1255406 0.05169,-0.5649324 z"
       id="path122459" />
    <path
       d="M 22.273691,2.3409371 V 4.334816 q 0,0.6793958 -0.07385,0.9895547 -0.07385,0.3101589 -0.306466,0.5797018 -0.232619,0.2695429 -0.56124,0.3876987 -0.328621,0.1181558 -0.734781,0.1181558 -0.535394,0 -0.889861,-0.1218482 Q 19.353027,6.1625383 19.142562,5.9003802 18.932097,5.638222 18.843481,5.3502173 18.754864,5.0585202 18.754864,4.4271252 V 2.3409371 q 0,-0.8233981 0.14031,-1.233251 0.144002,-0.40985285 0.564932,-0.65724152 0.424623,-0.24738868 1.026479,-0.24738868 0.491085,0 0.878783,0.17354131 0.387699,0.16984894 0.579702,0.41723762 0.192003,0.24738867 0.258466,0.55754757 0.07015,0.310159 0.07015,0.9895547 z m -1.491717,-0.502162 q 0,-0.4763156 -0.048,-0.5944713 -0.04431,-0.1218482 -0.214157,-0.1218482 -0.166157,0 -0.221542,0.1292329 -0.05169,0.1255405 -0.05169,0.5870866 V 4.755746 q 0,0.5206239 0.048,0.6277026 0.05169,0.1070787 0.21785,0.1070787 0.166157,0 0.21785,-0.1255405 0.05169,-0.1255406 0.05169,-0.5649324 z"
       id="path122461" />
  </g>
  <g
     aria-label="[ ····· ]"
     transform="scale(0.88669595,1.1277823)"
     id="text1702"
     style="font-stretch:condensed;font-size:7.56197px;font-family:Impact;-inkscape-font-specification:'Impact, Condensed';text-align:center;text-anchor:middle;stroke-width:1.13429">
    <path
       d="m 3.5164605,11.135209 v 0.9194 H 3.180455 v 4.139145 h 0.3360055 v 0.919399 H 1.8290482 v -5.977944 z"
       id="path123205" />
    <path
       d="m 6.2451209,13.996795 q 0.2178497,0 0.3803139,0.155079 0.1624642,0.15508 0.1624642,0.384006 0,0.225235 -0.1587718,0.384007 -0.1587719,0.158772 -0.3840063,0.158772 -0.2215421,0 -0.380314,-0.158772 -0.1587718,-0.158772 -0.1587718,-0.384007 0,-0.225234 0.1587718,-0.380314 0.1587719,-0.158771 0.380314,-0.158771 z"
       id="path123207" />
    <path
       d="m 8.7670082,13.996795 q 0.2178497,0 0.3803139,0.155079 0.1624642,0.15508 0.1624642,0.384006 0,0.225235 -0.1587718,0.384007 -0.1587719,0.158772 -0.3840063,0.158772 -0.2215421,0 -0.380314,-0.158772 -0.1587718,-0.158772 -0.1587718,-0.384007 0,-0.225234 0.1587718,-0.380314 0.1587719,-0.158771 0.380314,-0.158771 z"
       id="path123209" />
    <path
       d="m 11.288896,13.996795 q 0.21785,0 0.380314,0.155079 0.162464,0.15508 0.162464,0.384006 0,0.225235 -0.158772,0.384007 -0.158772,0.158772 -0.384006,0.158772 -0.221542,0 -0.380314,-0.158772 -0.158772,-0.158772 -0.158772,-0.384007 0,-0.225234 0.158772,-0.380314 0.158772,-0.158771 0.380314,-0.158771 z"
       id="path123211" />
    <path
       d="m 13.810784,13.996795 q 0.217849,0 0.380314,0.155079 0.162464,0.15508 0.162464,0.384006 0,0.225235 -0.158772,0.384007 -0.158772,0.158772 -0.384006,0.158772 -0.221542,0 -0.380314,-0.158772 -0.158772,-0.158772 -0.158772,-0.384007 0,-0.225234 0.158772,-0.380314 0.158772,-0.158771 0.380314,-0.158771 z"
       id="path123213" />
    <path
       d="m 16.332671,13.996795 q 0.217849,0 0.380313,0.155079 0.162465,0.15508 0.162465,0.384006 0,0.225235 -0.158772,0.384007 -0.158772,0.158772 -0.384006,0.158772 -0.221543,0 -0.380314,-0.158772 -0.158772,-0.158772 -0.158772,-0.384007 0,-0.225234 0.158772,-0.380314 0.158771,-0.158771 0.380314,-0.158771 z"
       id="path123215" />
    <path
       d="m 19.061332,17.113153 v -0.919399 h 0.336005 v -4.139145 h -0.336005 v -0.9194 h 1.687412 v 5.977944 z"
       id="path123217" />
  </g>
  <g
     aria-label="}"
     transform="matrix(0,-1.7577816,2.3396076,0,-15.945901,29.703296)"
     id="text1716"
     style="font-stretch:condensed;font-size:7.56197px;font-family:Impact;-inkscape-font-specification:'Impact, Condensed';text-align:center;text-anchor:middle;stroke-width:0.246556;stroke-dasharray:none" />
  <g
     aria-label="}"
     transform="matrix(0,-1.9399398,2.5631892,0,-20.09282,31.857871)"
     id="text4666"
     style="font-size:7.56197px;font-family:'American Typewriter';-inkscape-font-specification:'American Typewriter, Normal';text-align:center;text-anchor:middle;stroke-width:1.13429">
    <path
       d="m 11.184882,12.590876 q 0,-0.362975 0.0983,-0.552024 0.09831,-0.189049 0.362975,-0.332727 -0.257107,-0.136115 -0.362975,-0.332726 -0.0983,-0.204174 -0.0983,-0.559586 V 9.5963356 q 0,-0.4159083 -0.143678,-0.5444618 Q 10.897527,8.9157583 10.458932,8.9157583 V 8.4393542 h 0.211736 q 0.574709,0 0.816692,0.257107 0.249545,0.249545 0.249545,0.8545026 v 1.2477252 q 0,0.597396 0.431033,0.703263 v 0.446156 q -0.431033,0.120992 -0.431033,0.673016 v 1.330906 q 0,0.552024 -0.249545,0.794007 -0.249545,0.241983 -0.816692,0.241983 h -0.211736 v -0.476404 q 0.438595,-0.0076 0.582272,-0.136115 0.143678,-0.128554 0.143678,-0.521776 z"
       id="path4670" />
  </g>
</svg>
