<?xml version="1.0" encoding="UTF-8" standalone="no"?>
<svg
   width="20"
   height="20"
   version="1.1"
   id="svg272"
   sodipodi:docname="output-na.svg"
   inkscape:version="1.2.2 (b0a84865, 2022-12-01)"
   xmlns:inkscape="http://www.inkscape.org/namespaces/inkscape"
   xmlns:sodipodi="http://sodipodi.sourceforge.net/DTD/sodipodi-0.dtd"
   xmlns="http://www.w3.org/2000/svg"
   xmlns:svg="http://www.w3.org/2000/svg">
  <defs
     id="defs276" />
  <sodipodi:namedview
     id="namedview274"
     pagecolor="#ffffff"
     bordercolor="#000000"
     borderopacity="0.25"
     inkscape:showpageshadow="2"
     inkscape:pageopacity="0.0"
     inkscape:pagecheckerboard="0"
     inkscape:deskcolor="#d1d1d1"
     showgrid="false"
     inkscape:zoom="5"
     inkscape:cx="26.9"
     inkscape:cy="-52.9"
     inkscape:window-width="1390"
     inkscape:window-height="1205"
     inkscape:window-x="660"
     inkscape:window-y="121"
     inkscape:window-maximized="0"
     inkscape:current-layer="svg272" />
  <g
     aria-label="N / A"
     transform="scale(0.9990496,1.0009513)"
     id="text607"
     style="font-stretch:condensed;font-size:8.52015px;font-family:Impact;-inkscape-font-specification:'Impact, Condensed';text-align:center;text-anchor:middle;stroke-width:1.27802">
    <path
       d="M 6.4129937,0.35775275 V 7.0931644 H 4.877869 L 3.9667787,4.0312355 V 7.0931644 H 2.5023779 V 0.35775275 H 3.9667787 L 4.9485929,3.3905601 V 0.35775275 Z"
       id="path118529" />
    <path
       d="M 11.588319,0.22878563 9.5914092,7.2221316 H 8.318379 L 10.32777,0.22878563 Z"
       id="path118531" />
    <path
       d="m 16.514031,0.35775275 1.002616,6.73541165 h -1.793059 l -0.08737,-1.2106268 h -0.628195 l -0.104006,1.2106268 h -1.81386 L 13.980451,0.35775275 Z M 15.5863,4.6885517 Q 15.453173,3.5444886 15.320045,1.8637559 15.053791,3.7941024 14.987227,4.6885517 Z"
       id="path118533" />
  </g>
  <g
     aria-label="[ ····· ]"
     transform="scale(0.88669595,1.1277823)"
     id="text1702"
     style="font-stretch:condensed;font-size:7.56197px;font-family:Impact;-inkscape-font-specification:'Impact, Condensed';text-align:center;text-anchor:middle;stroke-width:1.13429">
    <path
       d="m 3.5164605,11.135209 v 0.9194 H 3.180455 v 4.139145 h 0.3360055 v 0.919399 H 1.8290482 v -5.977944 z"
       id="path129133" />
    <path
       d="m 6.2451209,13.996795 q 0.2178497,0 0.3803139,0.155079 0.1624642,0.15508 0.1624642,0.384006 0,0.225235 -0.1587718,0.384007 -0.1587719,0.158772 -0.3840063,0.158772 -0.2215421,0 -0.380314,-0.158772 -0.1587718,-0.158772 -0.1587718,-0.384007 0,-0.225234 0.1587718,-0.380314 0.1587719,-0.158771 0.380314,-0.158771 z"
       id="path129135" />
    <path
       d="m 8.7670082,13.996795 q 0.2178497,0 0.3803139,0.155079 0.1624642,0.15508 0.1624642,0.384006 0,0.225235 -0.1587718,0.384007 -0.1587719,0.158772 -0.3840063,0.158772 -0.2215421,0 -0.380314,-0.158772 -0.1587718,-0.158772 -0.1587718,-0.384007 0,-0.225234 0.1587718,-0.380314 0.1587719,-0.158771 0.380314,-0.158771 z"
       id="path129137" />
    <path
       d="m 11.288896,13.996795 q 0.21785,0 0.380314,0.155079 0.162464,0.15508 0.162464,0.384006 0,0.225235 -0.158772,0.384007 -0.158772,0.158772 -0.384006,0.158772 -0.221542,0 -0.380314,-0.158772 -0.158772,-0.158772 -0.158772,-0.384007 0,-0.225234 0.158772,-0.380314 0.158772,-0.158771 0.380314,-0.158771 z"
       id="path129139" />
    <path
       d="m 13.810784,13.996795 q 0.217849,0 0.380314,0.155079 0.162464,0.15508 0.162464,0.384006 0,0.225235 -0.158772,0.384007 -0.158772,0.158772 -0.384006,0.158772 -0.221542,0 -0.380314,-0.158772 -0.158772,-0.158772 -0.158772,-0.384007 0,-0.225234 0.158772,-0.380314 0.158772,-0.158771 0.380314,-0.158771 z"
       id="path129141" />
    <path
       d="m 16.332671,13.996795 q 0.217849,0 0.380313,0.155079 0.162465,0.15508 0.162465,0.384006 0,0.225235 -0.158772,0.384007 -0.158772,0.158772 -0.384006,0.158772 -0.221543,0 -0.380314,-0.158772 -0.158772,-0.158772 -0.158772,-0.384007 0,-0.225234 0.158772,-0.380314 0.158771,-0.158771 0.380314,-0.158771 z"
       id="path129143" />
    <path
       d="m 19.061332,17.113153 v -0.919399 h 0.336005 v -4.139145 h -0.336005 v -0.9194 h 1.687412 v 5.977944 z"
       id="path129145" />
  </g>
  <g
     aria-label="}"
     transform="matrix(0,-1.7577816,2.3396076,0,-15.945901,29.703296)"
     id="text1716"
     style="font-stretch:condensed;font-size:7.56197px;font-family:Impact;-inkscape-font-specification:'Impact, Condensed';text-align:center;text-anchor:middle;stroke-width:0.246556;stroke-dasharray:none" />
  <g
     aria-label="}"
     transform="matrix(0,-1.9399398,2.5631892,0,-20.09282,31.857871)"
     id="text4666"
     style="font-size:7.56197px;font-family:'American Typewriter';-inkscape-font-specification:'American Typewriter, Normal';text-align:center;text-anchor:middle;stroke-width:1.13429">
    <path
       d="m 11.184882,12.590876 q 0,-0.362975 0.0983,-0.552024 0.09831,-0.189049 0.362975,-0.332727 -0.257107,-0.136115 -0.362975,-0.332726 -0.0983,-0.204174 -0.0983,-0.559586 V 9.5963356 q 0,-0.4159083 -0.143678,-0.5444618 Q 10.897527,8.9157583 10.458932,8.9157583 V 8.4393542 h 0.211736 q 0.574709,0 0.816692,0.257107 0.249545,0.249545 0.249545,0.8545026 v 1.2477252 q 0,0.597396 0.431033,0.703263 v 0.446156 q -0.431033,0.120992 -0.431033,0.673016 v 1.330906 q 0,0.552024 -0.249545,0.794007 -0.249545,0.241983 -0.816692,0.241983 h -0.211736 v -0.476404 q 0.438595,-0.0076 0.582272,-0.136115 0.143678,-0.128554 0.143678,-0.521776 z"
       id="path4670" />
  </g>
</svg>
