<?xml version="1.0" encoding="UTF-8" standalone="no"?>
<svg
   inkscape:version="1.2.2 (b0a84865, 2022-12-01)"
   sodipodi:docname="task-exploration.svg"
   id="svg272"
   version="1.1"
   height="20"
   width="20"
   xml:space="preserve"
   xmlns:inkscape="http://www.inkscape.org/namespaces/inkscape"
   xmlns:sodipodi="http://sodipodi.sourceforge.net/DTD/sodipodi-0.dtd"
   xmlns="http://www.w3.org/2000/svg"
   xmlns:svg="http://www.w3.org/2000/svg"><defs
     id="defs276" /><sodipodi:namedview
     id="namedview274"
     pagecolor="#ffffff"
     bordercolor="#000000"
     borderopacity="0.25"
     inkscape:showpageshadow="2"
     inkscape:pageopacity="0.0"
     inkscape:pagecheckerboard="0"
     inkscape:deskcolor="#d1d1d1"
     showgrid="false"
     inkscape:zoom="10"
     inkscape:cx="10.35"
     inkscape:cy="26.65"
     inkscape:window-width="1390"
     inkscape:window-height="1177"
     inkscape:window-x="662"
     inkscape:window-y="121"
     inkscape:window-maximized="0"
     inkscape:current-layer="svg272" /><g
     aria-label="}"
     transform="matrix(0,-1.7577816,2.3396076,0,-15.945901,29.703296)"
     id="text1716"
     style="font-stretch:condensed;font-size:7.56197px;font-family:Impact;-inkscape-font-specification:'Impact, Condensed';text-align:center;text-anchor:middle;stroke-width:0.246556;stroke-dasharray:none" /><path
     unicode=""
     d="m 10.203483,11.4 q 0.230167,0 0.516126,0.03487 l 0.265039,1.060157 0.03487,0.007 q 0.341766,0.09765 0.655625,0.272013 l 0.03487,0.01393 0.934611,-0.557972 q 0.425451,0.334786 0.725364,0.732338 l -0.557972,0.934611 0.02093,0.03487 q 0.174373,0.306886 0.272013,0.648652 l 0.007,0.04187 1.06015,0.265039 q 0.03487,0.299913 0.03487,0.509152 0,0.23714 -0.03487,0.516125 l -1.06015,0.265039 -0.007,0.04187 q -0.10462,0.341765 -0.272013,0.648651 l -0.02093,0.03487 0.557971,0.934611 q -0.334786,0.425452 -0.725365,0.732338 l -0.934611,-0.564945 -0.03487,0.02093 q -0.306886,0.174366 -0.655625,0.272013 l -0.03487,0.01393 -0.265039,1.053178 Q 10.419703,19.4 10.203483,19.4 9.9733172,19.4 9.687358,19.365134 L 9.4223187,18.311956 9.387452,18.298023 Q 9.0456929,18.200376 8.7318271,18.02601 L 8.6969601,18.00508 7.7623492,18.570025 Q 7.3438705,18.235236 7.0369846,17.837684 l 0.5579719,-0.934611 -0.020933,-0.03487 Q 7.399657,16.55434 7.3089839,16.219555 l -0.013933,-0.04187 -1.053184,-0.265039 Q 6.2,15.619716 6.2,15.396523 q 0,-0.230166 0.041867,-0.509152 l 1.053184,-0.265039 0.013933,-0.04187 Q 7.399657,14.24568 7.5740232,13.931814 l 0.020933,-0.03487 -0.5579719,-0.934611 q 0.3278125,-0.425452 0.7323449,-0.732338 l 0.9276309,0.557972 0.034867,-0.01393 Q 9.0456929,12.59967 9.387452,12.502024 l 0.034867,-0.007 0.265039,-1.060157 Q 9.9872705,11.4 10.203483,11.4 Z m 0,2.503914 q -0.6207447,0 -1.0601503,0.439412 -0.4394123,0.439406 -0.4394123,1.056664 0,0.617258 0.4394123,1.056664 0.4394056,0.439412 1.0601503,0.439412 0.620752,0 1.060158,-0.439412 0.439405,-0.439406 0.439405,-1.056664 0,-0.617258 -0.439405,-1.056664 -0.439406,-0.439412 -1.060158,-0.439412 z"
     id="path69435"
     style="stroke-width:0.00697472" /><path
     unicode=""
     d="M 7.9101634,2.9051359 10.147474,0.6678339 Q 10.215308,0.6 10.300017,0.6 q 0.08474,0 0.152543,0.0678339 l 2.20341,2.237302 q 0.05933,0.067834 0.03817,0.1101759 -0.02117,0.042334 -0.105935,0.042334 h -1.440687 v 1.6949308 h 1.694931 V 3.2864641 q 0,-0.084751 0.04233,-0.1017009 0.04233,-0.016917 0.110176,0.042334 l 2.237302,2.20341 q 0.06783,0.059334 0.06783,0.1483096 0,0.088984 -0.06783,0.1483012 l -2.237302,2.2457854 q -0.06783,0.059334 -0.110176,0.042334 -0.04233,-0.016917 -0.04233,-0.1017009 V 6.4474237 h -1.694931 v 1.6949308 h 1.440687 q 0.08475,0 0.105935,0.042334 0.02117,0.042334 -0.03817,0.1101759 L 10.45256,10.532166 Q 10.384726,10.6 10.300017,10.6 q -0.08474,0 -0.152543,-0.06783 L 7.9101634,8.2948641 Q 7.8423295,8.2270302 7.8635797,8.1846882 7.8847465,8.1423545 7.9695139,8.1423545 H 9.4525763 V 6.4474237 H 7.7576455 v 1.4661122 q 0,0.084751 -0.042334,0.1017009 -0.042334,0.016917 -0.1101759,-0.042334 L 5.3678339,5.7271177 Q 5.3,5.6677839 5.3,5.5788165 5.3,5.4898325 5.367834,5.4305069 l 2.237302,-2.20341 q 0.067834,-0.059334 0.1101759,-0.042334 0.042334,0.016917 0.042334,0.1017009 V 4.7525763 H 9.4525763 V 3.0576455 H 7.9695139 q -0.084751,0 -0.1059342,-0.042334 -0.021167,-0.042334 0.046584,-0.1101756 z"
     id="path80669"
     style="stroke-width:0.00847465" /></svg>
