<?xml version="1.0" encoding="UTF-8" standalone="no"?>
<svg
   inkscape:version="1.2.2 (b0a84865, 2022-12-01)"
   sodipodi:docname="visualization-explicit.svg"
   id="svg272"
   version="1.1"
   height="20"
   width="20"
   xml:space="preserve"
   xmlns:inkscape="http://www.inkscape.org/namespaces/inkscape"
   xmlns:sodipodi="http://sodipodi.sourceforge.net/DTD/sodipodi-0.dtd"
   xmlns="http://www.w3.org/2000/svg"
   xmlns:svg="http://www.w3.org/2000/svg"><defs
     id="defs276" /><sodipodi:namedview
     id="namedview274"
     pagecolor="#ffffff"
     bordercolor="#000000"
     borderopacity="0.25"
     inkscape:showpageshadow="2"
     inkscape:pageopacity="0.0"
     inkscape:pagecheckerboard="0"
     inkscape:deskcolor="#d1d1d1"
     showgrid="false"
     inkscape:zoom="10"
     inkscape:cx="10.65"
     inkscape:cy="23.45"
     inkscape:window-width="1390"
     inkscape:window-height="1205"
     inkscape:window-x="660"
     inkscape:window-y="121"
     inkscape:window-maximized="0"
     inkscape:current-layer="g87736" /><g
     aria-label="}"
     transform="matrix(0,-1.7577816,2.3396076,0,-15.945901,29.703296)"
     id="text1716"
     style="font-stretch:condensed;font-size:7.56197px;font-family:Impact;-inkscape-font-specification:'Impact, Condensed';text-align:center;text-anchor:middle;stroke-width:0.246556;stroke-dasharray:none" /><path
     unicode=""
     d="m 10.03725,0.5 q 0.829957,0 1.624493,0.2277357 0.794536,0.2277286 1.417,0.5971643 0.622471,0.3694286 1.17915,0.8350214 0.556678,0.4655857 0.956478,0.9615357 0.3998,0.49595 0.688258,0.9615358 0.288464,0.4655928 0.430164,0.8350214 0.1417,0.3694357 0.1417,0.5819857 0,0.21255 -0.1417,0.5819857 -0.1417,0.3694286 -0.435222,0.8350214 -0.293521,0.4655858 -0.693321,0.9615358 -0.3998,0.49595 -0.956479,0.9615357 -0.556678,0.4655928 -1.17915,0.8350214 -0.622464,0.369436 -1.417,0.597164 Q 10.857086,10.5 10.03725,10.5 9.2174071,10.5 8.4228714,10.272264 7.6283429,10.044536 7.0058714,9.6751 6.3834,9.3056714 5.8267214,8.8400786 5.2700429,8.3744929 4.8702429,7.8785429 4.4704429,7.3825929 4.1769214,6.9170071 3.8834,6.4514143 3.7417,6.0819857 3.6,5.71255 3.6,5.5 3.6,5.28745 3.7417,4.9180143 3.8834,4.5485857 4.1718643,4.0829929 4.4603214,3.6174071 4.8601214,3.1214571 5.2599214,2.6255071 5.8166,2.1599214 6.3732786,1.6943286 6.99575,1.3249 7.6182214,0.9554643 8.41275,0.7277357 9.2072857,0.5 10.03725,0.5 Z m 2.914979,2.6821857 q -0.151822,-0.1518214 -0.182186,-0.1214571 -0.03036,0.030357 0.05057,0.2226714 0.253036,0.5769214 0.253036,1.2044571 0,1.2550572 -0.890693,2.1457429 -0.890686,0.8906929 -2.145743,0.8906929 -1.255064,0 -2.1457497,-0.8906929 -0.8906929,-0.8906857 -0.8906929,-2.1457429 0,-0.5971714 0.2327929,-1.15385 Q 7.3145357,3.1417 7.2791357,3.1113357 7.2437071,3.0809786 7.1020071,3.2327929 6.3935071,3.9311714 5.4825786,5.0951429 5.351,5.2570857 5.3307571,5.5050643 5.3105429,5.7530357 5.42185,5.9352214 5.6445214,6.2995929 5.8975571,6.6538429 6.1505929,7.0081 6.6060571,7.4838071 7.0615214,7.9595143 7.5422929,8.3036429 8.0230643,8.6477714 8.6860214,8.89575 q 0.66295,0.2479714 1.3512146,0.2479714 0.688257,0 1.351214,-0.2429143 0.66295,-0.2429142 1.143721,-0.5921 0.480772,-0.3491928 0.936236,-0.8249 0.455464,-0.4757071 0.7085,-0.8249 0.253036,-0.3491928 0.475707,-0.7135642 0.111336,-0.1821858 0.09109,-0.4301572 -0.02021,-0.2479786 -0.1417,-0.4200428 Q 13.691076,3.9109286 12.952211,3.1821857 Z M 8.4987857,4.2145714 8.1445357,4.57895 Q 7.9927143,4.7307714 7.9471643,4.9686214 7.9015929,5.2064786 7.9927357,5.3886643 8.3672286,6.0769214 8.9340286,6.56275 9.0959714,6.6943286 9.3237071,6.6740857 9.5514357,6.6538714 9.6931357,6.5020214 L 10.047393,6.1578929 q 0.1417,-0.1518215 0.126514,-0.3390643 -0.01521,-0.18725 -0.167,-0.3390715 Q 9.5615571,5.0344143 9.1060929,4.29555 8.9947571,4.1133571 8.8226929,4.0931143 8.6506286,4.0729 8.4988071,4.2145714 Z"
     id="path68625"
     style="stroke-width:0.0101214" /><g
     aria-label="}"
     transform="matrix(0,-1.7577816,2.3396076,0,-15.564235,46.488839)"
     id="text1716-5"
     style="font-stretch:condensed;font-size:7.56197px;font-family:Impact;-inkscape-font-specification:'Impact, Condensed';text-align:center;text-anchor:middle;stroke-width:0.246556;stroke-dasharray:none" /><g
     id="g87736"
     transform="matrix(1.2500656,0,0,1.352609,-2.445234,-7.224657)"><g
       aria-label="[ ····· ]"
       transform="scale(0.88669595,1.1277823)"
       id="text1702"
       style="font-stretch:condensed;font-size:5.40771px;font-family:Impact;-inkscape-font-specification:'Impact, Condensed';text-align:center;text-anchor:middle;stroke-width:0.811153"><path
         d="m 5.9206495,13.1383 v 0.65748 H 5.6803656 v 2.959982 h 0.2402839 v 0.65748 H 4.7139486 V 13.1383 Z"
         id="path125182" /><path
         d="m 7.8719668,15.184674 q 0.1557886,0 0.2719698,0.110901 0.1161813,0.1109 0.1161813,0.27461 0,0.161069 -0.1135408,0.27461 -0.1135408,0.113541 -0.2746103,0.113541 -0.158429,0 -0.2719698,-0.113541 -0.1135407,-0.113541 -0.1135407,-0.27461 0,-0.16107 0.1135407,-0.27197 0.1135408,-0.113541 0.2719698,-0.113541 z"
         id="path125184" /><path
         d="m 9.6754169,15.184674 q 0.1557886,0 0.2719698,0.110901 0.1161813,0.1109 0.1161813,0.27461 0,0.161069 -0.1135408,0.27461 -0.1135408,0.113541 -0.2746103,0.113541 -0.158429,0 -0.2719697,-0.113541 -0.1135408,-0.113541 -0.1135408,-0.27461 0,-0.16107 0.1135408,-0.27197 0.1135407,-0.113541 0.2719697,-0.113541 z"
         id="path125186" /><path
         d="m 11.478867,15.184674 q 0.155789,0 0.27197,0.110901 0.116181,0.1109 0.116181,0.27461 0,0.161069 -0.113541,0.27461 -0.11354,0.113541 -0.27461,0.113541 -0.158429,0 -0.27197,-0.113541 -0.113541,-0.113541 -0.113541,-0.27461 0,-0.16107 0.113541,-0.27197 0.113541,-0.113541 0.27197,-0.113541 z"
         id="path125188" /><path
         d="m 13.282318,15.184674 q 0.155788,0 0.271969,0.110901 0.116182,0.1109 0.116182,0.27461 0,0.161069 -0.113541,0.27461 -0.113541,0.113541 -0.27461,0.113541 -0.158429,0 -0.27197,-0.113541 -0.113541,-0.113541 -0.113541,-0.27461 0,-0.16107 0.113541,-0.27197 0.113541,-0.113541 0.27197,-0.113541 z"
         id="path125190" /><path
         d="m 15.085767,15.184674 q 0.155789,0 0.27197,0.110901 0.116181,0.1109 0.116181,0.27461 0,0.161069 -0.11354,0.27461 -0.113541,0.113541 -0.274611,0.113541 -0.158429,0 -0.27197,-0.113541 -0.11354,-0.113541 -0.11354,-0.27461 0,-0.16107 0.11354,-0.27197 0.113541,-0.113541 0.27197,-0.113541 z"
         id="path125192" /><path
         d="m 17.037085,17.413242 v -0.65748 h 0.240284 V 13.79578 H 17.037085 V 13.1383 h 1.206701 v 4.274942 z"
         id="path125194" /></g></g></svg>
